<?xml version="1.0" encoding="utf-8"?>
<!-- Generator: Adobe Illustrator 21.0.0, SVG Export Plug-In . SVG Version: 6.00 Build 0)  -->
<svg version="1.1" id="Capa_1" xmlns="http://www.w3.org/2000/svg" xmlns:xlink="http://www.w3.org/1999/xlink" x="0px" y="0px"
	 viewBox="0 0 953 163.3" style="enable-background:new 0 0 953 163.3;" xml:space="preserve">
<style type="text/css">
	.st0{fill:#04B4A9;}
	.st1{fill:#1A1A1A;}
	.st2{fill:#00B4A7;}
	.st3{fill:#231F20;}
	.st4{fill:#00B4AC;}
	.st5{fill:#027069;}
	.st6{fill:#01403C;}
	.st7{fill:#808080;}
	.st8{fill:#C6E8E9;}
	.st9{fill:#C6E7E6;}
	.st10{fill:#FFFFFF;}
	.st11{fill:#A1D9D8;}
	.st12{fill:#7CCDC8;}
	.st13{fill:#C5E8ED;}
	.st14{fill:#60C5BE;}
	.st15{fill:#6FCAC8;}
	.st16{fill:#C0C0C0;}
	.st17{fill:#70CAC8;}
	.st18{fill:#84D0CE;}
	.st19{fill:#9FD9D7;}
	.st20{fill:#69C8C4;}
	.st21{fill:#23BCB9;}
	.st22{fill:#84BCB9;}
	.st23{fill:#CDEBF4;}
	.st24{fill:#00B4A4;}
	.st25{fill:#00AF98;}
	.st26{fill:#404040;}
	.st27{fill:#C6E7E2;}
	.st28{fill:#00AD90;}
	.st29{fill:#24BCB9;}
	.st30{fill:#59C4C2;}
	.st31{fill:#211E1F;}
	.st32{fill:#00AF9A;}
	.st33{fill:#00B09E;}
	.st34{fill:#D9D9D9;}
	.st35{fill:#359B97;}
	.st36{fill:#2FBDBA;}
	.st37{fill:#36BEBB;}
	.st38{fill:#BFBFBF;}
	.st39{fill:#328782;}
	.st40{fill:#338884;}
	.st41{fill:#3FBFBD;}
	.st42{fill:#2B756F;}
	.st43{fill:#4BC2C0;}
	.st44{fill:#149883;}
	.st45{fill:#52C3C1;}
	.st46{fill:#00B6AB;}
	.st47{fill:#2FBCB2;}
	.st48{fill:#1E978B;}
	.st49{fill:#00B6A9;}
	.st50{fill:#14564E;}
	.st51{fill:#00B8AC;}
	.st52{fill:#13917C;}
	.st53{fill:#00AD95;}
	.st54{fill:#00B6A7;}
	.st55{fill:#00B6A8;}
	.st56{fill:#179282;}
	.st57{fill:#15564E;}
	.st58{fill:#00AB8B;}
	.st59{fill:#2D5955;}
	.st60{fill:#328883;}
</style>
<g>
	<g>
		<path class="st0" d="M347.3,50.8c-7.2,0-14.4,1.5-21,4.4h39.5l-2.1,24.9h-22.4v2.6h24.3l7.6,24.6l8.1-24.6h14.2
			C387.3,63.3,368.4,50.8,347.3,50.8L347.3,50.8z M313,63.7c-2.7,2.4-5.2,5.1-7.4,7.9h14v71.1h13.3V71.6H356l0.7-7.9
			C356.7,63.7,313,63.7,313,63.7z M300.3,80.1c-3.5,7.2-5.4,15.1-5.4,23c0,14.3,5.8,27.9,16.1,37.8V80.1H300.3L300.3,80.1z
			 M346.4,91.2l18.3,51.5H378l19.3-51.5h-9.9l-9.2,27.8c-0.3,1-0.5,2-0.7,3s-0.3,1.8-0.3,2.3h-8.5c0-0.5-0.1-1.4-0.2-2.3l0,0l0,0
			c-0.2-0.9-0.4-2-0.7-3.1l-8.5-27.8H346.4z M341.3,102.3v48.9h-15c6.7,2.9,13.8,4.4,21,4.4s14.4-1.5,21-4.4h-9.6L341.3,102.3z
			 M399.3,110.2l-8.3,22C395.4,125.6,398.2,118.1,399.3,110.2L399.3,110.2z"/>
		<path class="st1" d="M292.6,59.4l-1.4,16.4h24V147H337V75.9h22.8l1.4-16.4H292.6z M340.4,87l21.3,60h19.2l22.6-60h-19.1
			l-10.2,30.8c-0.4,1.2-0.6,2.3-0.8,3.5s-0.3,2.2-0.3,3c0-0.8-0.1-1.8-0.3-3c-0.2-1.2-0.5-2.3-0.8-3.5L362.5,87H340.4z"/>
		<rect x="257.3" y="51.3" class="st2" width="4.9" height="103.6"/>
		<polygon class="st3" points="51.5,132 40.5,132 40.5,87.8 51.5,87.2 		"/>
		<path class="st3" d="M85.9,132v-30.8c0-0.8-0.1-1.4-0.2-2.1c-0.1-0.6-0.4-1.2-0.7-1.6c-0.3-0.5-0.7-0.8-1.3-1
			c-0.5-0.3-1.3-0.4-2.1-0.4c-0.7,0-1.4,0.2-2.3,0.4c-0.9,0.2-1.7,0.6-2.6,1.1c-0.9,0.5-1.8,1.1-2.8,1.8s-1.9,1.5-2.8,2.4V132h-11
			V87.6l9.7-0.6c0.1,0.3,0.3,0.7,0.4,1.3c0.2,0.5,0.3,1.1,0.3,1.7c0.1,0.6,0.2,1.3,0.3,1.9c0.1,0.7,0.2,1.4,0.2,2.1
			c2.5-2.4,5.1-4.2,7.8-5.4s5.1-1.8,7.5-1.8c2,0,3.8,0.3,5.1,0.8c1.4,0.5,2.5,1.3,3.4,2.3c0.9,1.1,1.5,2.3,1.9,3.9
			c0.4,1.6,0.6,3.4,0.6,5.5v32.9L85.9,132L85.9,132z"/>
		<path class="st3" d="M133.2,132.4c-0.1-0.3-0.2-0.6-0.4-1.1c-0.1-0.5-0.2-0.9-0.3-1.4c-0.1-0.5-0.2-1-0.2-1.5c0-0.5-0.1-1-0.1-1.5
			c-0.8,0.8-1.7,1.5-2.6,2.3c-0.9,0.7-1.9,1.3-3,1.8c-1,0.5-2.2,0.9-3.3,1.2c-1.2,0.3-2.4,0.5-3.7,0.5c-3,0-5.6-0.5-7.7-1.4
			c-2.1-1-3.8-2.4-5.1-4.3c-1.3-1.8-2.3-4.1-2.8-6.8s-0.8-5.7-0.8-9c0-4,0.5-7.4,1.4-10.4s2.3-5.6,4.2-7.7c1.8-2.1,4-3.6,6.5-4.7
			c2.4-1.1,5.2-1.6,8.3-1.6c1.6,0,3.1,0.1,4.4,0.3c1.4,0.2,2.5,0.5,3.7,1.1V64.7l11.1-0.8v67.7L133.2,132.4z M132,96.5
			c-2.1-0.9-4.4-1.4-7-1.4c-1.5,0-2.9,0.3-4.2,0.8s-2.3,1.4-3.3,2.7c-0.9,1.2-1.5,2.8-2.1,4.7c-0.5,1.9-0.7,4.3-0.7,7
			c0,2.6,0.2,4.8,0.5,6.5c0.4,1.7,1,3.2,1.7,4.2c0.7,1.1,1.6,1.8,2.7,2.3c1.1,0.5,2.3,0.6,3.7,0.6c0.8,0,1.6-0.1,2.4-0.3
			c0.8-0.2,1.5-0.5,2.3-0.8c0.7-0.4,1.4-0.7,2-1.1s1.2-0.8,1.6-1.2L132,96.5L132,96.5z"/>
		<path class="st3" d="M183.7,129.6c-1.4,0.6-3,1.2-4.5,1.6c-1.5,0.5-3.2,0.8-4.9,1.1c-1.6,0.3-3.3,0.4-5.1,0.4
			c-3.1,0-6-0.4-8.3-1.2c-2.4-0.8-4.5-2-6.2-3.7c-1.7-1.7-3-3.9-3.9-6.5c-0.9-2.6-1.4-5.9-1.4-9.6c0-3.8,0.5-7.2,1.4-10.4
			c1-3.1,2.3-5.7,4.2-7.9c1.8-2.2,4.1-3.9,6.8-5.1c2.7-1.2,5.8-1.7,9.2-1.7c2.9,0,5.3,0.5,7.4,1.4c2,0.9,3.6,2.3,4.9,4.1
			c1.3,1.8,2.2,4,2.7,6.4c0.5,2.5,0.8,5.3,0.8,8.4c0,0.6,0,1.4,0,2.2c-0.1,0.8-0.2,1.8-0.3,3h-26.2c0,2,0.2,3.7,0.6,5.2
			c0.4,1.5,1,2.7,1.9,3.7c0.8,1,1.9,1.7,3.3,2.3c1.3,0.5,2.9,0.7,4.7,0.7c1.2,0,2.3-0.1,3.5-0.4c1.3-0.2,2.4-0.5,3.7-0.9
			c1.3-0.4,2.4-0.8,3.6-1.4c1.2-0.5,2.3-1.1,3.3-1.6l2.6,7.6C186.6,128.3,185.3,129,183.7,129.6L183.7,129.6z M177,105.2
			c0-3.5-0.6-6.1-1.8-7.8c-1.2-1.7-3-2.4-5.2-2.4c-1.3,0-2.4,0.2-3.4,0.6c-1,0.4-1.9,1.1-2.7,1.9c-0.8,0.8-1.4,1.9-1.9,3.2
			c-0.5,1.3-0.8,2.8-1.1,4.5H177z"/>
		<polygon class="st3" points="217.3,109.4 231.3,132 218.7,132 209.6,116.9 200.9,132 190,132 204,109.4 190.5,87.7 203.1,87.7 
			211.6,102.3 220.4,87.7 231.1,87.7 		"/>
		<path class="st4" d="M54.2,74.2c0,4.6-3.6,8.4-8.2,8.4c-4.5,0-8.2-3.8-8.2-8.4s3.7-8.4,8.2-8.4C50.6,65.8,54.2,69.5,54.2,74.2
			L54.2,74.2z"/>
		<path class="st0" d="M368.2,39.6l-0.9,6.7c15.3,5.9,27.6,17.9,33.8,33l6.7-0.9C400.8,60.4,386.2,46.2,368.2,39.6L368.2,39.6z"/>
		<path class="st5" d="M370,26.3l-0.9,6.6c21.1,7.1,37.9,23.7,45.4,44.6l6.7-0.9C413.1,52.7,394,34,370,26.3L370,26.3z"/>
		<path class="st6" d="M372,12.4l-0.9,6.6c27.3,8.3,48.8,29.5,57.5,56.5l6.6-0.9C425.9,44.7,402.1,21.2,372,12.4L372,12.4z"/>
	</g>
	<g>
		<path class="st7" d="M689.5,39.7l-3.9,3.9v1.3h1.3l3.6-3.6l4.6,4.9c0.1-0.6,0.2-1.3,0.2-1.9c0-0.2,0-0.3,0-0.5l-3.8-4
			c-0.3,0-0.6,0-1,0C690.2,39.8,689.9,39.7,689.5,39.7"/>
		<path class="st7" d="M683.8,37.5h-1.3l-1.4,1.4c0.4,0.5,0.7,1,1.1,1.5l1.6-1.6L683.8,37.5C683.8,37.5,683.8,37.5,683.8,37.5"/>
		<path class="st8" d="M683.8,37.5h-1.3l-1.4,1.4c0.4,0.5,0.7,1,1.1,1.5l1.6-1.6L683.8,37.5C683.8,37.5,683.8,37.5,683.8,37.5"/>
		<path class="st9" d="M735.3,12c-3,0-5.6,1.8-6.7,4.4c1.9,1.7,3,4.2,3,6.9c0,0.7-0.1,1.3-0.2,1.9c1.1,0.7,2.4,1.1,3.9,1.1
			c4,0,7.2-3.2,7.2-7.2C742.5,15.3,739.3,12,735.3,12"/>
		<path class="st9" d="M704.1,8.4c-5.1,0-9.2,4.1-9.2,9.1c0,0.4,0,0.8,0.1,1.1c2.7,1.2,4.9,3.4,6,6.1c0.5-0.3,0.9-0.5,1.4-0.7l-1-1
			v-1.3h1.3l1.6,1.6c0.8-0.2,1.5-0.3,2.3-0.4l0-1.5l0.9-0.9l0.9,0.9l0,1.5c0.9,0.1,1.8,0.2,2.6,0.5c0.6-0.7,1.1-1.6,1.5-2.5
			c-3.7-0.8-6.5-4.1-6.5-8c0-1.5,0.4-2.8,1.1-4C706.2,8.6,705.2,8.4,704.1,8.4"/>
		<path d="M702.7,21.8h-1.3v1.3l1,1c0.6-0.3,1.3-0.5,1.9-0.7L702.7,21.8 M707.5,20.6l-0.9,0.9l0,1.5c0.3,0,0.6,0,0.9,0
			c0.3,0,0.6,0,0.9,0l0-1.5L707.5,20.6"/>
		<path class="st10" d="M702.7,21.8h-1.3v1.3l1,1c0.6-0.3,1.3-0.5,1.9-0.7L702.7,21.8 M707.5,20.6l-0.9,0.9l0,1.5c0.3,0,0.6,0,0.9,0
			c0.3,0,0.6,0,0.9,0l0-1.5L707.5,20.6"/>
		<path class="st9" d="M724.1,7.9c-1,0-1.9,0.3-2.7,0.7c0.8,1.3,1.3,2.8,1.3,4.4c0,0.3,0,0.6,0,0.9c2.1,0.1,4,1,5.6,2.2
			c0.7-0.9,1.1-1.9,1.1-3.1C729.3,10.2,727,7.9,724.1,7.9"/>
		<path class="st11" d="M671.1,21.9c-2.5,0.4-4.3,2.5-4.3,5.1c0,2.8,2.3,5.1,5.2,5.1c2.2,0,4-1.3,4.8-3.2
			C673.9,27.6,671.8,25,671.1,21.9"/>
		<path class="st11" d="M657.4,28.1c-4.5,0-8.1,3.6-8.1,8.1c0,4.4,3.6,8,8.1,8c0.1,0,0.2,0,0.3,0c0.9-4.2,3.9-7.6,7.7-9.2
			C664.9,31.1,661.5,28.1,657.4,28.1"/>
		<path class="st9" d="M681.3,9.4c-5.7,0-10.4,4.6-10.4,10.3c0,0.8,0.1,1.5,0.3,2.2c0.3,0,0.5-0.1,0.8-0.1c2.9,0,5.2,2.3,5.2,5.1
			c0,0.7-0.1,1.3-0.4,1.9c0.9,0.4,1.8,0.7,2.8,0.9c0-0.3,0-0.7,0-1c0-6.1,5-11,11.1-11c0.3,0,0.6,0,0.9,0
			C690.6,13,686.4,9.4,681.3,9.4"/>
		<path class="st12" d="M671.9,21.8c-0.3,0-0.6,0-0.8,0.1c0.7,3.1,2.8,5.7,5.6,7c0.3-0.6,0.4-1.3,0.4-1.9
			C677.1,24.1,674.8,21.8,671.9,21.8"/>
		<path class="st11" d="M728.2,16.1c-0.9,1.2-2.4,2-4.1,2c-1,0-1.9-0.3-2.7-0.7c-1.5,2.3-4.1,3.8-7,3.8c-0.6,0-1.2-0.1-1.7-0.2
			c-0.2,0.8-0.3,1.5-0.3,2.4c0,0.2,0,0.4,0,0.5c3.2,1.3,5.8,3.8,7.1,7l2,2c0.2,0,0.4,0,0.5,0c1.8,0,3.4-0.5,4.8-1.3v-2.1l-5.5-5.4
			v-1.3h1.3l5.8,5.7c0.2,0.2,0.3,0.4,0.3,0.6v1.2c1.4-1.3,2.4-3,2.8-5c-2-1.3-3.4-3.5-3.4-6.1c0-1,0.2-1.9,0.6-2.8
			C728.5,16.3,728.3,16.2,728.2,16.1"/>
		<path d="M719.4,30.9c0.2,0.6,0.4,1.2,0.6,1.8c0.5,0.1,0.9,0.2,1.4,0.2L719.4,30.9 M722.6,22.7h-1.3V24l5.5,5.4v2.1
			c0.7-0.4,1.3-0.8,1.8-1.4v-1.2c0-0.2-0.1-0.5-0.3-0.6L722.6,22.7"/>
		<path class="st13" d="M719.4,30.9c0.2,0.6,0.4,1.2,0.6,1.8c0.5,0.1,0.9,0.2,1.4,0.2L719.4,30.9 M722.6,22.7h-1.3V24l5.5,5.4v2.1
			c0.7-0.4,1.3-0.8,1.8-1.4v-1.2c0-0.2-0.1-0.5-0.3-0.6L722.6,22.7"/>
		<path class="st12" d="M728.6,16.4c-0.4,0.9-0.6,1.8-0.6,2.8c0,2.6,1.3,4.8,3.4,6.1c0.1-0.6,0.2-1.3,0.2-1.9
			C731.6,20.6,730.5,18.2,728.6,16.4"/>
		<path class="st12" d="M722.6,13.9c-0.1,1.3-0.6,2.5-1.2,3.5c0.8,0.5,1.7,0.7,2.7,0.7c1.7,0,3.2-0.8,4.1-2
			C726.7,14.8,724.8,14,722.6,13.9"/>
		<path class="st14" d="M665.4,35c-3.9,1.6-6.8,5.1-7.7,9.2c4.3-0.2,7.8-3.7,7.8-8C665.5,35.8,665.5,35.4,665.4,35"/>
		<path class="st11" d="M691.5,17.8c0.1,0.6,0.2,1.2,0.2,1.8c0,5.7-4.6,10.3-10.4,10.3c-0.6,0-1.2-0.1-1.7-0.1
			c0.2,2.4,1.3,4.7,2.8,6.4c1.2-0.6,2.5-0.9,3.9-0.9c1.2,0,2.3,0.2,3.3,0.6v-7l0.9-0.9l0.9,0.9v8c1,0.7,1.8,1.5,2.4,2.5
			c0.5-0.1,0.9-0.3,1.3-0.5c-0.3-1-0.4-2.1-0.4-3.1c0-4.1,2-7.8,5-10.1c-2.6-1.4-4.4-3.9-4.8-6.9C693.9,18.2,692.7,17.9,691.5,17.8"
			/>
		<path class="st7" d="M690.5,28l-0.9,0.9v7c0.6,0.3,1.3,0.6,1.8,1v-8L690.5,28"/>
		<path class="st15" d="M691.4,36.8v2.7l0.2,0.2c0.8-0.1,1.5-0.2,2.3-0.4C693.2,38.3,692.4,37.5,691.4,36.8 M686.3,35.3
			c-1.4,0-2.7,0.3-3.9,0.9c0.4,0.5,0.9,0.9,1.4,1.3h0v0c1.6,1.2,3.6,2.1,5.7,2.3l0.1-0.1v-3.8C688.6,35.5,687.4,35.3,686.3,35.3"/>
		<path class="st16" d="M689.6,35.9v3.8l-0.1,0.1c0.4,0,0.7,0.1,1.1,0.1c0.3,0,0.6,0,1,0l-0.2-0.2v-2.7
			C690.8,36.4,690.2,36.1,689.6,35.9"/>
		<polyline class="st16" points="683.8,37.5 683.8,37.5 683.8,37.5 683.8,37.5 		"/>
		<polyline class="st17" points="683.8,37.5 683.8,37.5 683.8,37.5 683.8,37.5 		"/>
		<path class="st18" d="M695,18.7c0.4,3,2.2,5.5,4.8,6.9c0.4-0.3,0.8-0.5,1.2-0.8C699.9,22,697.7,19.8,695,18.7"/>
		<path class="st18" d="M690.6,17.8c-6.1,0-11.1,4.9-11.1,11c0,0.3,0,0.7,0,1c0.6,0.1,1.2,0.1,1.7,0.1c5.8,0,10.4-4.6,10.4-10.3
			c0-0.6-0.1-1.2-0.2-1.8C691.2,17.8,690.9,17.8,690.6,17.8"/>
		<path class="st9" d="M714.4,4.8c-3.1,0-5.8,1.7-7.2,4.2c3.5,1.3,6.1,4.6,6.1,8.6c0,1.2-0.2,2.4-0.7,3.5c0,0,0,0,0.1,0
			c0.8-3.2,3.3-5.7,6.4-6.7c-0.1-0.4-0.2-0.8-0.2-1.3c0-1.8,1-3.5,2.5-4.4C719.9,6.3,717.4,4.8,714.4,4.8"/>
		<path class="st19" d="M707.2,9c-0.7,1.2-1.1,2.6-1.1,4c0,3.9,2.8,7.2,6.5,8c0.4-1.1,0.7-2.2,0.7-3.5
			C713.3,13.6,710.8,10.2,707.2,9"/>
		<path class="st19" d="M721.4,8.6c-1.5,0.9-2.5,2.5-2.5,4.4c0,0.4,0.1,0.9,0.2,1.3c0.9-0.3,1.9-0.4,2.9-0.4c0.2,0,0.4,0,0.6,0
			c0-0.3,0-0.6,0-0.9C722.7,11.4,722.2,9.9,721.4,8.6"/>
		<path class="st18" d="M719.1,14.3c-3.2,1-5.6,3.5-6.4,6.7c0.6,0.1,1.1,0.2,1.7,0.2c3,0,5.5-1.5,7-3.8
			C720.3,16.7,719.4,15.6,719.1,14.3"/>
		<path class="st20" d="M722,13.8c-1,0-2,0.2-2.9,0.4c0.3,1.3,1.2,2.4,2.3,3.1c0.7-1,1.1-2.2,1.2-3.5
			C722.4,13.9,722.2,13.8,722,13.8"/>
		<path class="st21" d="M698.4,36.6c-0.9,0.9-2,1.7-3.2,2.2c0.4,1.7,1.3,3.3,2.3,4.7l3.9-3.9L698.4,36.6 M701.4,26.2
			c0.2,0.8,0.3,1.7,0.3,2.5c0,2.4-0.8,4.6-2.1,6.5h0l3.8,3.7c0.4,0.4,0.4,0.9,0,1.3l-4.6,4.6c0.7,0.7,1.6,1.3,2.5,1.8
			c1.6-0.9,3.5-1.5,5.4-1.7l0-16.7l-1.7-1.7c-0.3,0-0.6,0-0.9,0C703.2,26.6,702.2,26.5,701.4,26.2 M711.1,23.4
			c-0.7,0.8-1.6,1.6-2.6,2.1l0,2.3v0v4.5l4-4.1l1.3,0l0,1.3l-5.3,5.4l0,10c0.6,0,1.2,0.1,1.7,0.2v-4.8l0.9-0.9l0.9,0.9v5.3
			c0.7,0.3,1.4,0.6,2,0.9c1.8-1,3.3-2.5,4.4-4.2l-0.8-0.8v-1.3h1.3l0.4,0.4c0.7-1.6,1.1-3.3,1.1-5.1c0-0.5,0-0.9-0.1-1.4l-2.2-2.2
			c-3.2-1.4-5.5-4.5-5.7-8.2C712,23.7,711.5,23.6,711.1,23.4"/>
		<path d="M718.9,40.4h-1.3v1.3l0.8,0.8c0.3-0.5,0.6-1.1,0.9-1.7L718.9,40.4 M718.1,32.1l2.2,2.2c-0.1-0.5-0.2-1.1-0.3-1.6
			C719.3,32.5,718.7,32.3,718.1,32.1"/>
		<path class="st22" d="M718.9,40.4h-1.3v1.3l0.8,0.8c0.3-0.5,0.6-1.1,0.9-1.7L718.9,40.4 M718.1,32.1l2.2,2.2
			c-0.1-0.5-0.2-1.1-0.3-1.6C719.3,32.5,718.7,32.3,718.1,32.1"/>
		<path d="M699.6,35.2L699.6,35.2c-0.4,0.5-0.8,0.9-1.2,1.4l3,3l-3.9,3.9c0.4,0.5,0.8,0.9,1.2,1.3l4.6-4.6c0.4-0.4,0.4-0.9,0-1.3
			L699.6,35.2 M708.4,25.5c-1.1,0.6-2.2,0.9-3.5,1l1.7,1.7l0,16.7c0.3,0,0.6,0,1,0c0.3,0,0.6,0,0.9,0l0-10l5.3-5.4l0-1.3l-1.3,0
			l-4,4.1v-4.5v0L708.4,25.5"/>
		<path class="st23" d="M699.6,35.2L699.6,35.2c-0.4,0.5-0.8,0.9-1.2,1.4l3,3l-3.9,3.9c0.4,0.5,0.8,0.9,1.2,1.3l4.6-4.6
			c0.4-0.4,0.4-0.9,0-1.3L699.6,35.2 M708.4,25.5c-1.1,0.6-2.2,0.9-3.5,1l1.7,1.7l0,16.7c0.3,0,0.6,0,1,0c0.3,0,0.6,0,0.9,0l0-10
			l5.3-5.4l0-1.3l-1.3,0l-4,4.1v-4.5v0L708.4,25.5"/>
		<path d="M711.1,39.5l-0.9,0.9v4.8c0.6,0.1,1.2,0.3,1.8,0.5v-5.3L711.1,39.5"/>
		<path class="st23" d="M711.1,39.5l-0.9,0.9v4.8c0.6,0.1,1.2,0.3,1.8,0.5v-5.3L711.1,39.5"/>
		<path class="st24" d="M702.4,24c-0.5,0.2-1,0.5-1.4,0.7c0.2,0.5,0.3,0.9,0.5,1.4c0.9,0.3,1.8,0.4,2.7,0.4c0.3,0,0.6,0,0.9,0
			L702.4,24 M706.6,23c-0.8,0.1-1.6,0.2-2.3,0.4l2.3,2.3L706.6,23 M708.5,23l0,2.5c1-0.5,1.9-1.2,2.6-2.1
			C710.2,23.2,709.4,23.1,708.5,23"/>
		<path d="M707.6,23c-0.3,0-0.6,0-0.9,0l0,2.7l-2.3-2.3c-0.7,0.2-1.3,0.4-1.9,0.7l2.6,2.5c1.3-0.1,2.4-0.5,3.5-1l0-2.5
			C708.2,23,707.9,23,707.6,23"/>
		<path class="st23" d="M707.6,23c-0.3,0-0.6,0-0.9,0l0,2.7l-2.3-2.3c-0.7,0.2-1.3,0.4-1.9,0.7l2.6,2.5c1.3-0.1,2.4-0.5,3.5-1l0-2.5
			C708.2,23,707.9,23,707.6,23"/>
		<path class="st25" d="M712.4,23.9c0.2,3.6,2.5,6.8,5.7,8.2l-0.3-0.3v-1.3h1.3l0.4,0.4C718.1,27.7,715.6,25.2,712.4,23.9"/>
		<path d="M719,30.5h-1.3v1.3l0.3,0.3c0.6,0.3,1.3,0.5,1.9,0.6c-0.2-0.6-0.3-1.2-0.6-1.8L719,30.5"/>
		<path class="st22" d="M719,30.5h-1.3v1.3l0.3,0.3c0.6,0.3,1.3,0.5,1.9,0.6c-0.2-0.6-0.3-1.2-0.6-1.8L719,30.5"/>
		<path class="st25" d="M699.8,25.6c-3.1,2.3-5,6-5,10.1c0,1.1,0.1,2.1,0.4,3.1c1.2-0.5,2.3-1.3,3.2-2.2l-0.1-0.1v-1.3h1.3
			c1.3-1.8,2.1-4.1,2.1-6.5c0-0.9-0.1-1.7-0.3-2.5C700.8,26.1,700.3,25.8,699.8,25.6"/>
		<path class="st26" d="M699.6,35.2h-1.3v1.3l0.1,0.1C698.8,36.2,699.2,35.7,699.6,35.2"/>
		<path class="st27" d="M699.6,35.2h-1.3v1.3l0.1,0.1C698.8,36.2,699.2,35.7,699.6,35.2"/>
		<path class="st28" d="M700.9,24.8c-0.4,0.2-0.8,0.5-1.2,0.8c0.5,0.3,1,0.5,1.6,0.7C701.3,25.7,701.1,25.3,700.9,24.8"/>
		<g>
			<polygon class="st3" points="770.7,134.9 770.7,101.4 779,100.9 779,134.9 			"/>
			<path class="st3" d="M805,134.9v-23.3c0-0.6-0.1-1.1-0.2-1.6c-0.1-0.5-0.3-0.9-0.5-1.2c-0.2-0.3-0.6-0.6-1-0.8
				c-0.4-0.2-1-0.3-1.6-0.3c-0.5,0-1.1,0.1-1.7,0.3c-0.6,0.2-1.3,0.5-2,0.9c-0.7,0.4-1.4,0.8-2.1,1.4c-0.7,0.5-1.4,1.2-2.1,1.8v22.8
				h-8.4v-33.6l7.3-0.5c0.1,0.2,0.2,0.5,0.3,0.9c0.1,0.4,0.2,0.8,0.2,1.3c0.1,0.5,0.1,0.9,0.2,1.4c0.1,0.5,0.1,1,0.1,1.5
				c1.9-1.8,3.9-3.2,5.9-4.1c2-0.9,3.9-1.4,5.7-1.4c1.5,0,2.9,0.2,3.9,0.6c1.1,0.4,1.9,1,2.6,1.8c0.7,0.8,1.1,1.8,1.5,2.9
				c0.3,1.2,0.5,2.6,0.5,4.2v24.9L805,134.9L805,134.9z"/>
			<path class="st3" d="M840.9,135.2c-0.1-0.2-0.1-0.5-0.2-0.8c-0.1-0.3-0.1-0.7-0.2-1c-0.1-0.4-0.1-0.8-0.1-1.2
				c0-0.4-0.1-0.8-0.1-1.1c-0.6,0.6-1.3,1.2-2,1.7c-0.7,0.5-1.5,1-2.2,1.4c-0.8,0.4-1.6,0.7-2.5,0.9c-0.9,0.2-1.8,0.3-2.8,0.3
				c-2.3,0-4.2-0.4-5.8-1.1c-1.6-0.7-2.9-1.8-3.8-3.3c-1-1.4-1.7-3.1-2.1-5.1c-0.4-2-0.6-4.3-0.6-6.8c0-3,0.4-5.6,1.1-7.9
				c0.7-2.3,1.8-4.2,3.1-5.8c1.4-1.6,3-2.7,4.9-3.6c1.9-0.8,4-1.2,6.3-1.2c1.2,0,2.3,0.1,3.3,0.2c1,0.2,1.9,0.4,2.8,0.8V83.8
				l8.4-0.6v51.4L840.9,135.2z M840,108c-1.6-0.7-3.4-1.1-5.3-1.1c-1.2,0-2.2,0.2-3.2,0.6c-0.9,0.4-1.8,1.1-2.4,2
				c-0.7,0.9-1.2,2.1-1.6,3.6c-0.4,1.5-0.6,3.3-0.6,5.4c0,2,0.1,3.6,0.4,4.9c0.3,1.3,0.7,2.4,1.3,3.2c0.6,0.8,1.2,1.4,2.1,1.7
				c0.8,0.3,1.8,0.5,2.8,0.5c0.6,0,1.3-0.1,1.9-0.2c0.6-0.2,1.2-0.4,1.7-0.6c0.6-0.2,1.1-0.5,1.5-0.8c0.5-0.3,0.9-0.6,1.3-0.9
				L840,108L840,108z"/>
			<path class="st3" d="M879.2,133.1c-1.1,0.5-2.2,0.9-3.4,1.2c-1.2,0.4-2.4,0.6-3.7,0.8c-1.2,0.2-2.5,0.3-3.8,0.3
				c-2.4,0-4.5-0.3-6.3-0.9c-1.9-0.6-3.4-1.5-4.7-2.8c-1.3-1.3-2.3-2.9-2.9-4.9c-0.7-2-1-4.4-1-7.3c0-2.9,0.4-5.5,1.1-7.8
				c0.7-2.3,1.8-4.3,3.2-6c1.4-1.6,3.1-2.9,5.1-3.8c2-0.9,4.3-1.3,7-1.3c2.2,0,4.1,0.4,5.6,1.1c1.5,0.7,2.8,1.8,3.7,3.1
				c0.9,1.3,1.6,3,2,4.9c0.4,1.9,0.6,4,0.6,6.4c0,0.5,0,1,0,1.6c0,0.6-0.1,1.3-0.2,2.3h-19.8c0,1.5,0.2,2.8,0.5,4
				c0.3,1.1,0.8,2.1,1.4,2.8c0.6,0.7,1.5,1.3,2.4,1.7c1,0.4,2.2,0.6,3.5,0.6c0.9,0,1.8-0.1,2.7-0.2c0.9-0.2,1.8-0.4,2.8-0.7
				c0.9-0.3,1.8-0.6,2.8-1c0.9-0.4,1.8-0.8,2.6-1.2l2,5.7C881.3,132,880.3,132.6,879.2,133.1z M874.1,114.6c0-2.7-0.5-4.6-1.4-5.9
				c-0.9-1.3-2.2-1.9-4-1.9c-1,0-1.8,0.2-2.6,0.5c-0.8,0.3-1.5,0.8-2.1,1.4c-0.6,0.6-1.1,1.5-1.5,2.4c-0.4,1-0.6,2.1-0.8,3.4
				L874.1,114.6L874.1,114.6z"/>
			<path class="st3" d="M904.6,117.8l10.6,17.1h-9.6l-6.9-11.4l-6.6,11.4h-8.3l10.6-17.1l-10.2-16.4h9.6l6.4,11.1l6.6-11.1h8.2
				L904.6,117.8z"/>
		</g>
		<ellipse class="st4" cx="774.8" cy="91.1" rx="6.2" ry="6.4"/>
		<path class="st3" d="M702.1,102.7v-0.8c0-0.2-0.1-0.5-0.3-0.6l-5.6-5.5V85.4l-0.9-0.9l-0.9,0.9v8.5l-9.6-9.5
			c-0.4-0.4-0.9-0.4-1.3,0l-5.1,5l-4.4-4.2l4.9-4.9v-1.3h-1.3l-4.9,4.9l-5-4.8V68.6l-0.9-0.9l-0.9,0.9v8.8l-4.1-4.2l-1.3,0l0,1.3
			l5.7,5.8l0,0l11.6,11.1c0.4,0.3,0.9,0.3,1.3,0l5.1-5l4.4,4.4l-5,4.9l-4.9-0.2l-1,0.9l0.9,0.9l5.3,0.2h0c0.2,0,0.5-0.1,0.6-0.3
			l5.3-5.2l10.4,10.3v0.5c0,11.7-2.7,32.3-20.7,39.9l-0.5,1.2c0,0,1.1,0.5,1.2,0.5C699.3,136.2,702.1,114.7,702.1,102.7"/>
		<path class="st3" d="M718,101.9l0-13.6l7.7-7.6v-1.3h-1.3l-6.4,6.3l0-11.1l16.5-16.3l4.7,4.6c0.2,0.2,0.4,0.3,0.7,0.3
			c0.2,0,0.5-0.1,0.6-0.3l5.6-5.5v-1.3h-1.3l-4.9,4.9l-4-4l10.5-10.4c0.2-0.2,0.3-0.4,0.3-0.6v-6l-0.9-0.9l-0.9,0.9v5.7l-4.8,4.7
			l-4.9-4.8h-1.3v1.3l4.9,4.8l-4.2,4.2l-10.5-10.4l4.4-4.4c0.2-0.2,0.3-0.4,0.3-0.6V29.1c0-0.2-0.1-0.5-0.3-0.6l-5.8-5.7h-1.3V24
			l5.5,5.4v8.7l-7.8-7.7h-1.3v1.3l8.7,8.6l-3.8,3.8l-3.7-3.7h-1.3v1.3l15.6,15.4l-16.8,16.6c-0.2,0.2-0.3,0.4-0.3,0.6v4.9H713
			l-0.9,0.9L713,81h3.1v6.6l-2.9,2.9c-0.2,0.2-0.3,0.4-0.3,0.6v10.8l0,1.1c0,1.5,0,3.9,0,7c0.2,10.2,2.8,30.5,9.4,44.8l1.2,0.5
			l0.5-1.2c-5.7-12.5-9-32-9.2-44.1c-0.1-3.1,0-5.5,0-6.9l0-11.6l1.4-1.4v11.8c0,40.5,19.2,47,20,47.2l1.1-0.6l-0.6-1.1
			C736.5,147.4,718,141,718,101.9"/>
		<path class="st3" d="M717.5,68.3L717.5,68.3l10.8-10.6l0-1.3H727l-10.2,10l-4.4-4.2l5-4.6l0-1.3l-1.3-0.1l-4.2,3.8V40.4l-0.9-0.9
			l-0.9,0.9v21.9l0,0.1l0,0.1c0,0,0,0.1,0,0.1c0,0,0,0,0,0.1l0,0.1l0,0.1c0,0,0,0.1,0.1,0.1l0,0l0,0l0,0l5.1,4.8l-5.5,5.4
			c-0.2,0.2-0.3,0.4-0.3,0.6v83.8l0.9,0.9l0.9-0.9V74.1L717.5,68.3L717.5,68.3"/>
		<path class="st3" d="M705.3,85c0-0.2-0.1-0.5-0.3-0.6l-5-4.9l5.3-5.3V73h-1.3l-5.3,5.3l-10.1-10V57.6c0-0.2-0.1-0.5-0.3-0.6
			l-5.8-5.9V46c0-0.2-0.1-0.5-0.3-0.6l-2.6-2.6l4.1-4v-1.3h-1.3l-4,4l-2.9-2.9h-1.3v1.3l6.6,6.5v5.2c0,0.2,0.1,0.5,0.3,0.6l5.8,5.9
			v10.2l-4.7,4.3l-5-5l4.9-4.8v-1.3h-1.3l-4.9,4.8l-4.2-4.1l0,0V47.2l-0.9-0.9l-0.9,0.9v13.1l-3.9-3.9h-1.3v1.3l5.4,5.4l0.1,0.1
			l11.4,11.3c0.3,0.4,0.9,0.4,1.3,0l5-4.6h0l15.7,15.6v4.8h-2.9l-0.9,0.9l0.9,0.9h2.9l0,9.9c0,39.1-18.5,45.5-18.7,45.5l-0.6,1.1
			c0,0,1,0.6,1.1,0.6c0.8-0.2,20-6.7,20-47.2L705.3,85"/>
		<path class="st29" d="M751.4,96.3c0,4.6-3.8,8.4-8.4,8.4s-8.4-3.7-8.4-8.4c0-4.6,3.8-8.3,8.4-8.3
			C747.6,87.9,751.4,91.7,751.4,96.3"/>
		<path class="st29" d="M773.9,61.9c0,7.6-6.2,13.7-13.9,13.7c-7.7,0-13.9-6.1-13.9-13.7c0-7.6,6.2-13.7,13.9-13.7
			C767.7,48.2,773.9,54.3,773.9,61.9"/>
		<path class="st30" d="M748.6,76.7c-0.8,0-1.5,0.1-2.2,0.3l-1,1c0.1,0.5,0.1,0.9,0.1,1.4c0,0.4,0,0.8-0.1,1.2l3.8,3.8v1.3H748
			l-3.1-3c-0.8,2.1-2.4,3.8-4.4,4.8c0.1,0.3,0.2,0.6,0.3,0.8c0.7-0.2,1.4-0.3,2.2-0.3c3.5,0,6.6,2.2,7.8,5.2
			c3.6-0.9,6.3-4.2,6.3-8.1C757,80.5,753.3,76.7,748.6,76.7"/>
		<path d="M745.4,80.6c-0.1,0.7-0.3,1.4-0.5,2l3.1,3h1.3v-1.3L745.4,80.6 M746.4,77c-0.4,0.1-0.7,0.2-1.1,0.4c0,0.2,0.1,0.4,0.1,0.6
			L746.4,77"/>
		<path class="st31" d="M745.4,80.6c-0.1,0.7-0.3,1.4-0.5,2l3.1,3h1.3v-1.3L745.4,80.6 M746.4,77c-0.4,0.1-0.7,0.2-1.1,0.4
			c0,0.2,0.1,0.4,0.1,0.6L746.4,77"/>
		<path class="st32" d="M742.9,87.9c-0.7,0-1.5,0.1-2.2,0.3c1.3,3,4.3,5.2,7.8,5.2c0.7,0,1.5-0.1,2.2-0.3
			C749.5,90.1,746.5,87.9,742.9,87.9"/>
		<path class="st21" d="M661.1,69.3c-2.4,0-4.3,1.9-4.3,4.3s1.9,4.3,4.3,4.3c0.8,0,1.6-0.2,2.3-0.6l-2.8-2.9l0-1.3l1.3,0l2.8,2.9
			c0.5-0.7,0.7-1.5,0.7-2.4C665.4,71.3,663.5,69.3,661.1,69.3"/>
		<path d="M660.6,73.1l0,1.3l2.8,2.9c0.5-0.3,1-0.7,1.3-1.3l-2.8-2.9L660.6,73.1"/>
		<path class="st3" d="M660.6,73.1l0,1.3l2.8,2.9c0.5-0.3,1-0.7,1.3-1.3l-2.8-2.9L660.6,73.1"/>
		<path class="st3" d="M760.8,62.6l0-1.3l-1.3,0l-11.2,11.2l-0.9-0.9c-0.6,0.3-1.3,0.5-2,0.6l-3.1-3.1l4.7,4.7l-10.1,10l-4.9-4.8
			v-9.3l-0.9-0.9l-0.9,0.9v9.7c0,0.2,0.1,0.5,0.3,0.6l5.2,5.1l-10.1,10l-4.9-4.8h-1.3v1.3l4.9,4.8l-4.8,4.8
			c-0.2,0.2-0.3,0.4-0.3,0.6c0,3.1,0.2,6.9,0.8,11c1.7,11.5,6.8,25.1,20.6,31.2l1.2-0.4l-0.4-1.2c-17.5-7.9-20.2-28.4-20.3-40.2
			l10.2-10.2l4.9,4.9c0.2,0.2,0.4,0.3,0.6,0.3h6.1l0.9-0.9l-0.9-0.9h-5.7l-4.6-4.6l10.2-10.2l5.2,5.1h1.3v-1.3l-5.2-5.1L760.8,62.6z
			"/>
		<path class="st17" d="M743.7,57.2c-1.5,1.2-3.2,2.2-5,2.8l1.1,1.1L743.7,57.2 M747.9,55.1c-0.7,0.1-1.4,0.2-2.2,0.2
			c-0.1,0-0.1,0-0.2,0c-0.2,0.3-0.5,0.6-0.8,0.8h1.2v1.3l-5.6,5.5c-0.2,0.2-0.4,0.3-0.6,0.3c-0.2,0-0.5-0.1-0.7-0.3l-2.5-2.5
			c-0.3,0.1-0.6,0.1-0.9,0.1c0.6,1.3,1,2.8,1,4.4c0,1.4-0.3,2.7-0.8,3.9c0.6,0.7,1.2,1.3,1.9,1.8c1.5,0.2,2.9,0.8,4,1.6
			c0.5,0.1,1.1,0.1,1.7,0.1c0.6,0,1.3-0.1,1.9-0.2l-3.1-3.1v-1.3h1.3l3.8,3.7c0.7-0.3,1.3-0.6,1.9-1c-2-2.4-3.1-5.4-3.1-8.7
			C746.1,59.4,746.8,57.1,747.9,55.1"/>
		<path d="M746,56.1h-1.2c-0.4,0.4-0.7,0.7-1.1,1l-3.9,3.9l-1.1-1.1c-0.7,0.2-1.4,0.4-2.1,0.5l2.5,2.5c0.2,0.2,0.4,0.3,0.6,0.3
			c0.2,0,0.5-0.1,0.6-0.3l5.6-5.5L746,56.1"/>
		<path class="st3" d="M746,56.1h-1.2c-0.4,0.4-0.7,0.7-1.1,1l-3.9,3.9l-1.1-1.1c-0.7,0.2-1.4,0.4-2.1,0.5l2.5,2.5
			c0.2,0.2,0.4,0.3,0.6,0.3c0.2,0,0.5-0.1,0.6-0.3l5.6-5.5L746,56.1"/>
		<path class="st33" d="M749.4,54.9c-0.5,0.1-1,0.2-1.5,0.3c-1.1,2-1.8,4.3-1.8,6.8c0,3.3,1.2,6.3,3.1,8.7c2.5-1.8,4.1-4.7,4.1-7.9
			C753.4,59.5,751.8,56.6,749.4,54.9"/>
		<path class="st30" d="M740.4,83l-5.2,5.2c0.4,0.1,0.9,0.1,1.3,0.1c1.4,0,2.7-0.3,3.9-0.9c-0.2-0.7-0.3-1.5-0.3-2.3
			C740.2,84.3,740.3,83.6,740.4,83 M730.2,74.3c-0.4,0.2-0.9,0.3-1.3,0.4c-0.3,0.5-0.5,0.9-0.7,1.5c1.2,0.9,1.9,2.4,1.9,3.9
			c0,1.4-0.5,2.6-1.4,3.5c1,1.8,2.6,3.2,4.5,4l2.5-2.5l-5.2-5.1c-0.2-0.2-0.3-0.4-0.3-0.6L730.2,74.3 M736.6,70.5
			c-0.6,0-1.1,0.1-1.7,0.2c-0.8,1.1-1.7,2-2.8,2.7V79l4.9,4.8l7.9-7.9c-0.6-1.5-1.7-2.8-3-3.7c-1.5-0.2-2.8-0.8-4-1.6
			C737.4,70.6,737,70.5,736.6,70.5"/>
		<path class="st34" d="M732.1,73.4c-0.6,0.4-1.2,0.7-1.8,0.9v5.1c0,0.2,0.1,0.5,0.3,0.6l5.2,5.1l-2.5,2.5c0.6,0.3,1.3,0.4,2,0.5
			l5.2-5.2c0.7-2.5,2.5-4.6,4.9-5.6c-0.1-0.5-0.3-0.9-0.5-1.4l-7.9,7.9l-4.9-4.8V73.4"/>
		<path class="st35" d="M732.1,73.4c-0.6,0.4-1.2,0.7-1.8,0.9v5.1c0,0.2,0.1,0.5,0.3,0.6l5.2,5.1l-2.5,2.5c0.6,0.3,1.3,0.4,2,0.5
			l5.2-5.2c0.7-2.5,2.5-4.6,4.9-5.6c-0.1-0.5-0.3-0.9-0.5-1.4l-7.9,7.9l-4.9-4.8V73.4"/>
		<path class="st36" d="M742.8,80.6l-2.4,2.4c-0.2,0.7-0.3,1.4-0.3,2.1c0,0.8,0.1,1.6,0.3,2.3c2-1,3.6-2.7,4.4-4.8L742.8,80.6
			 M745.4,78l-1.3,1.3l1.3,1.3c0.1-0.4,0.1-0.8,0.1-1.2C745.5,78.9,745.5,78.4,745.4,78"/>
		<path class="st34" d="M745.3,77.4c-2.4,1-4.2,3.1-4.9,5.6l2.4-2.4l2.1,2.1c0.3-0.6,0.4-1.3,0.5-2l-1.3-1.3l1.3-1.3
			C745.4,77.8,745.3,77.6,745.3,77.4"/>
		<path class="st35" d="M745.3,77.4c-2.4,1-4.2,3.1-4.9,5.6l2.4-2.4l2.1,2.1c0.3-0.6,0.4-1.3,0.5-2l-1.3-1.3l1.3-1.3
			C745.4,77.8,745.3,77.6,745.3,77.4"/>
		<path class="st37" d="M737.9,70.6c1.2,0.8,2.5,1.4,4,1.6C740.7,71.4,739.4,70.8,737.9,70.6"/>
		<path class="st29" d="M728.3,91c0,4.5-3.7,8.1-8.2,8.1c-4.5,0-8.2-3.6-8.2-8.1c0-4.5,3.7-8.2,8.2-8.2
			C724.6,82.8,728.3,86.5,728.3,91"/>
		<path class="st17" d="M732.2,60.6L720,72.6c1.8,1.5,4.1,2.4,6.5,2.4c0.8,0,1.6-0.1,2.4-0.3c0.4-0.6,0.8-1.1,1.3-1.6v-3.4l0.9-0.9
			l0.9,0.9v2c0.9-0.5,1.8-0.8,2.8-1c0.4-0.6,0.7-1.2,1-1.8c-1.4-1.7-2.2-3.8-2.2-6.1c0-0.7,0.1-1.4,0.2-2
			C733.3,60.7,732.8,60.6,732.2,60.6 M727,59l-9.5,9.3l0,0l0,0l-0.4,0.4c0.4,1,0.9,1.9,1.6,2.6L730,60.2C729,59.9,728,59.5,727,59
			 M722.6,55.6c-0.9,0.4-1.7,0.8-2.4,1.4c0,0.1,0,0.3,0,0.4c0,3.4-1.4,6.6-3.7,8.8l0.2,0.2l8.6-8.4
			C724.4,57.4,723.5,56.6,722.6,55.6"/>
		<path class="st38" d="M731.2,68.8l-0.9,0.9v3.4c0.5-0.5,1.2-1,1.8-1.4v-2L731.2,68.8"/>
		<path class="st39" d="M731.2,68.8l-0.9,0.9v3.4c0.5-0.5,1.2-1,1.8-1.4v-2L731.2,68.8"/>
		<path class="st38" d="M730,60.2l-11.3,11.2c0.4,0.5,0.8,0.9,1.3,1.3l12.2-12.1C731.5,60.5,730.7,60.3,730,60.2"/>
		<path class="st40" d="M730,60.2l-11.3,11.2c0.4,0.5,0.8,0.9,1.3,1.3l12.2-12.1C731.5,60.5,730.7,60.3,730,60.2"/>
		<path class="st38" d="M725.4,58l-8.6,8.4l-0.2-0.2c0,0-0.1,0.1-0.1,0.1c0.1,0.8,0.3,1.6,0.6,2.3l0.4-0.4l0,0l0,0L727,59
			C726.4,58.7,725.9,58.4,725.4,58"/>
		<path class="st40" d="M725.4,58l-8.6,8.4l-0.2-0.2c0,0-0.1,0.1-0.1,0.1c0.1,0.8,0.3,1.6,0.6,2.3l0.4-0.4l0,0l0,0L727,59
			C726.4,58.7,725.9,58.4,725.4,58"/>
		<path class="st41" d="M735.7,60.6c-0.6,0.1-1.2,0.1-1.8,0.1c0,0,0,0,0,0c-0.1,0.7-0.2,1.3-0.2,2c0,2.3,0.8,4.5,2.2,6.1
			c0.5-1.2,0.8-2.5,0.8-3.9C736.7,63.4,736.3,61.9,735.7,60.6"/>
		<path class="st37" d="M730.2,73.1c-0.5,0.5-0.9,1-1.3,1.6c0.4-0.1,0.9-0.2,1.3-0.4V73.1 M734.9,70.7c-1,0.2-2,0.5-2.8,1v1.7
			C733.2,72.7,734.1,71.7,734.9,70.7"/>
		<path class="st39" d="M732.1,71.7c-0.7,0.4-1.3,0.8-1.8,1.4v1.2c0.6-0.2,1.3-0.6,1.8-0.9V71.7"/>
		<path class="st42" d="M732.1,71.7c-0.7,0.4-1.3,0.8-1.8,1.4v1.2c0.6-0.2,1.3-0.6,1.8-0.9V71.7"/>
		<path class="st17" d="M651.6,58c-3.9,0-7,3.1-7,6.9c0,3.8,3.1,6.9,7,6.9c3.9,0,7-3.1,7-6.9C658.6,61.1,655.5,58,651.6,58"/>
		<path class="st17" d="M658.6,52.6c-0.9,1.2-1.4,2.8-1.4,4.4c0,4.3,3.5,7.8,7.9,7.8c1.2,0,2.3-0.2,3.3-0.7
			c-0.1-0.6-0.1-1.2-0.1-1.8c0-0.3,0-0.6,0-0.9l-1.8-1.8C663,58.4,660.1,55.9,658.6,52.6"/>
		<path d="M666.5,59.6l1.8,1.8c0-0.4,0.1-0.9,0.2-1.3C667.8,59.9,667.1,59.8,666.5,59.6"/>
		<path class="st17" d="M666.5,59.6l1.8,1.8c0-0.4,0.1-0.9,0.2-1.3C667.8,59.9,667.1,59.8,666.5,59.6"/>
		<path class="st21" d="M680.2,90.4c0,0-0.1,0-0.1,0l-0.9,0.9c-0.2,0.2-0.4,0.3-0.6,0.3c-0.2,0-0.5-0.1-0.6-0.3l-0.8-0.7
			c-2.4,0.8-4.1,3.1-4.1,5.7c0,3.3,2.7,6,6.1,6c3.2,0,5.9-2.5,6.1-5.6l-0.5,0.5c-0.2,0.2-0.4,0.3-0.6,0.3h0l-5.3-0.2l-0.9-0.9l1-0.9
			l4.9,0.2l1.2-1.2C684.1,92.4,682.4,90.8,680.2,90.4"/>
		<path d="M684.8,94.4l-1.2,1.2l-4.9-0.2l-1,0.9l0.9,0.9l5.3,0.2h0c0.2,0,0.5-0.1,0.6-0.3l0.5-0.5c0-0.1,0-0.2,0-0.4
			C685.1,95.6,685,95,684.8,94.4 M680,90.4c-0.5,0.1-1,0.1-1.5,0.1c-0.3,0-0.7,0-1,0c-0.1,0-0.3,0.1-0.4,0.1l0.8,0.7
			c0.2,0.2,0.4,0.3,0.6,0.3c0.2,0,0.5-0.1,0.6-0.3L680,90.4"/>
		<path class="st3" d="M684.8,94.4l-1.2,1.2l-4.9-0.2l-1,0.9l0.9,0.9l5.3,0.2h0c0.2,0,0.5-0.1,0.6-0.3l0.5-0.5c0-0.1,0-0.2,0-0.4
			C685.1,95.6,685,95,684.8,94.4 M680,90.4c-0.5,0.1-1,0.1-1.5,0.1c-0.3,0-0.7,0-1,0c-0.1,0-0.3,0.1-0.4,0.1l0.8,0.7
			c0.2,0.2,0.4,0.3,0.6,0.3c0.2,0,0.5-0.1,0.6-0.3L680,90.4"/>
		<path class="st43" d="M713.6,68.5c-1.5,0.8-3.3,1.3-5.1,1.5l0,13.1c0.5-0.2,0.9-0.4,1.3-0.6v-0.1c-0.4-0.6-0.7-1.4-0.7-2.2
			c0-0.8,0.3-1.6,0.7-2.2v-4.2c0-0.2,0.1-0.5,0.3-0.6l4-3.9C713.9,69,713.7,68.7,713.6,68.5 M698.1,65.8c-2.3,1.9-3.7,4.7-3.7,7.8
			c0,0.1,0,0.2,0,0.3l3,3c0.7,0.2,1.3,0.4,1.9,0.7l4.7-4.7h1.3v1.3l-4.5,4.4c1.4,1.1,2.4,2.7,2.9,4.5l0.6,0.6c0.1,0,0.2,0,0.3,0
			c0.6,0,1.3-0.1,1.9-0.2l0-13.7C703.3,69.7,700.3,68.2,698.1,65.8"/>
		<path class="st34" d="M706.6,69.9l0,13.7c0.6-0.1,1.2-0.3,1.8-0.5l0-13.1c-0.3,0-0.6,0-0.9,0C707.3,70,706.9,70,706.6,69.9"/>
		<path class="st35" d="M706.6,69.9l0,13.7c0.6-0.1,1.2-0.3,1.8-0.5l0-13.1c-0.3,0-0.6,0-0.9,0C707.3,70,706.9,70,706.6,69.9"/>
		<path class="st30" d="M714.7,71.1l-3.1,3v2.4c0.4-0.2,0.9-0.3,1.4-0.3c0.5,0,1.1,0.1,1.5,0.3c0.3-0.9,0.4-1.9,0.4-2.9
			C715,72.8,714.9,71.9,714.7,71.1"/>
		<path class="st34" d="M709.8,82.3v0.1c0,0,0,0,0.1,0C709.8,82.4,709.8,82.4,709.8,82.3 M714,69.3l-4,3.9c-0.2,0.2-0.3,0.4-0.3,0.6
			v4.2c0.4-0.6,1.1-1.1,1.8-1.4v-2.4l3.1-3C714.5,70.5,714.3,69.8,714,69.3"/>
		<path class="st35" d="M709.8,82.3v0.1c0,0,0,0,0.1,0C709.8,82.4,709.8,82.4,709.8,82.3 M714,69.3l-4,3.9c-0.2,0.2-0.3,0.4-0.3,0.6
			v4.2c0.4-0.6,1.1-1.1,1.8-1.4v-2.4l3.1-3C714.5,70.5,714.3,69.8,714,69.3"/>
		<path class="st34" d="M703.8,83.2c0,0.2,0.1,0.4,0.1,0.6c0.2,0,0.3,0,0.5,0L703.8,83.2 M694.5,73.9c0,1,0.2,1.9,0.5,2.8
			c0.1,0,0.3,0,0.5,0c0.7,0,1.4,0.1,2.1,0.3L694.5,73.9 M705.4,73h-1.3l-4.7,4.7c0.5,0.3,1.1,0.6,1.5,1l4.5-4.4V73"/>
		<path class="st35" d="M703.8,83.2c0,0.2,0.1,0.4,0.1,0.6c0.2,0,0.3,0,0.5,0L703.8,83.2 M694.5,73.9c0,1,0.2,1.9,0.5,2.8
			c0.1,0,0.3,0,0.5,0c0.7,0,1.4,0.1,2.1,0.3L694.5,73.9 M705.4,73h-1.3l-4.7,4.7c0.5,0.3,1.1,0.6,1.5,1l4.5-4.4V73"/>
		<path class="st30" d="M674,87.6c0,0.3,0,0.5,0,0.8c0,0.4,0,0.8-0.1,1.2c0.9,0.4,1.9,0.7,3,0.8L674,87.6 M684.2,86.3l-4.1,4.1
			c0,0,0.1,0,0.1,0c2.1-0.3,4-1.2,5.6-2.6L684.2,86.3 M671.8,71c-1.9,1.5-3.4,3.6-4,6v2.2l5,4.8l4.9-4.9h1.3v1.3l-4.9,4.9l4.4,4.2
			l5.1-5c0.2-0.2,0.4-0.3,0.6-0.3s0.5,0.1,0.6,0.3l2,1.9c0-0.4-0.1-0.7-0.1-1.1c0-2.4,1-4.7,2.7-6.2c-0.1-2.1-0.8-4-1.9-5.5
			c-1.9,1-4,1.6-6.3,1.6C677.5,75,674.2,73.5,671.8,71"/>
		<path class="st34" d="M667.8,77c-0.2,0.8-0.3,1.7-0.3,2.6c0,0.4,0,0.8,0.1,1.2c3.4,0.5,6.1,3.3,6.5,6.8l2.9,2.8
			c0.2,0,0.4,0,0.6,0.1c0.5-0.1,1-0.2,1.5-0.2c0.4,0,0.7,0,1,0.1l4.1-4.1l1.5,1.5c0.4-0.3,0.8-0.7,1.1-1.1c0-0.1,0-0.2-0.1-0.4
			l-2-1.9c-0.2-0.2-0.4-0.3-0.6-0.3s-0.5,0.1-0.6,0.3l-5.1,5l-4.4-4.2l4.9-4.9v-1.3h-1.3l-4.9,4.9l-5-4.8L667.8,77"/>
		<path class="st35" d="M667.8,77c-0.2,0.8-0.3,1.7-0.3,2.6c0,0.4,0,0.8,0.1,1.2c3.4,0.5,6.1,3.3,6.5,6.8l2.9,2.8
			c0.2,0,0.4,0,0.6,0.1c0.5-0.1,1-0.2,1.5-0.2c0.4,0,0.7,0,1,0.1l4.1-4.1l1.5,1.5c0.4-0.3,0.8-0.7,1.1-1.1c0-0.1,0-0.2-0.1-0.4
			l-2-1.9c-0.2-0.2-0.4-0.3-0.6-0.3s-0.5,0.1-0.6,0.3l-5.1,5l-4.4-4.2l4.9-4.9v-1.3h-1.3l-4.9,4.9l-5-4.8L667.8,77"/>
		<path class="st21" d="M680.1,90.4L680.1,90.4c0,0,0.1,0,0.1,0C680.1,90.4,680.1,90.4,680.1,90.4"/>
		<path class="st34" d="M679,90.3c-0.5,0-1,0.1-1.5,0.2c0.3,0,0.7,0,1,0c0.5,0,1,0,1.5-0.1l0,0C679.7,90.3,679.4,90.3,679,90.3"/>
		<path class="st21" d="M679,90.3c-0.5,0-1,0.1-1.5,0.2c0.3,0,0.7,0,1,0c0.5,0,1,0,1.5-0.1l0,0C679.7,90.3,679.4,90.3,679,90.3"/>
		<path class="st21" d="M666.3,80.8c-4.3,0-7.7,3.4-7.7,7.6c0,4.2,3.5,7.6,7.7,7.6c3.9,0,7.1-2.8,7.6-6.5c-3.3-1.5-5.7-4.4-6.3-8
			l-0.8-0.8C666.7,80.8,666.5,80.8,666.3,80.8"/>
		<path d="M666.9,80.8l0.8,0.8c0-0.2-0.1-0.5-0.1-0.7C667.3,80.8,667.1,80.8,666.9,80.8"/>
		<path class="st21" d="M666.9,80.8l0.8,0.8c0-0.2-0.1-0.5-0.1-0.7C667.3,80.8,667.1,80.8,666.9,80.8"/>
		<path class="st32" d="M667.7,81.6c0.6,3.6,3,6.6,6.3,8c0.1-0.4,0.1-0.8,0.1-1.2c0-0.3,0-0.5,0-0.8L667.7,81.6"/>
		<path class="st34" d="M667.6,80.9c0,0.2,0.1,0.5,0.1,0.7l6.3,6.1C673.7,84.2,671,81.4,667.6,80.9"/>
		<path class="st44" d="M667.6,80.9c0,0.2,0.1,0.5,0.1,0.7l6.3,6.1C673.7,84.2,671,81.4,667.6,80.9"/>
		<path class="st11" d="M745.7,24.4c-5.2,0-9.7,2.5-12.6,6.3c0.3,0,0.5,0,0.8,0c8.4,0,15.1,6.7,15.1,15c0,2.9-0.8,5.5-2.2,7.8
			c0.6,0.2,1.1,0.5,1.6,0.8c1.7-2.5,4.3-4.5,7.3-5.4c0-0.1,0-0.1,0-0.2c0-3.4,2.3-6.3,5.4-7.1c0.1-0.5,0.1-1.1,0.1-1.6
			C761.3,31.4,754.3,24.4,745.7,24.4"/>
		<path class="st21" d="M755.8,48.8c-3,1-5.6,2.9-7.3,5.4c0.3,0.2,0.6,0.4,0.9,0.6c2.6-0.6,4.9-1.9,6.8-3.6
			C755.9,50.5,755.8,49.7,755.8,48.8"/>
		<path class="st45" d="M746.8,53.5c-0.4,0.6-0.8,1.2-1.3,1.8c0.1,0,0.1,0,0.2,0c0.7,0,1.5-0.1,2.2-0.2c0.2-0.3,0.4-0.6,0.5-0.9
			C748,54,747.4,53.7,746.8,53.5"/>
		<path class="st46" d="M748.5,54.3c-0.2,0.3-0.4,0.6-0.5,0.9c0.5-0.1,1-0.2,1.5-0.3C749.1,54.6,748.8,54.4,748.5,54.3"/>
		<path class="st11" d="M693.8,39.3c-0.7,0.2-1.5,0.4-2.3,0.4l3.8,4C695.2,42.1,694.7,40.6,693.8,39.3 M683.8,37.5v1.3l-1.6,1.6
			c1.2,2,1.9,4.3,1.9,6.7c0,0.9-0.1,1.7-0.2,2.5c2.2,0.4,4.3,1.4,5.9,2.9c2.7-1.1,4.8-3.5,5.4-6.3l-4.6-4.9l-3.6,3.6h-1.3v-1.3
			l3.9-3.9C687.4,39.5,685.4,38.7,683.8,37.5 M682.3,36.2c-0.8,0.4-1.6,0.9-2.3,1.6c0.4,0.4,0.7,0.7,1,1.1l1.4-1.4h1.3
			C683.3,37.1,682.8,36.6,682.3,36.2"/>
		<path class="st21" d="M705.3,86l0,10.2c0.5-0.5,1-1,1.3-1.6l0-7C706.2,87,705.8,86.5,705.3,86"/>
		<path d="M706.6,87.6l0,7c0.6-1,1-2.2,1-3.5C707.6,89.8,707.2,88.6,706.6,87.6"/>
		<path class="st21" d="M706.6,87.6l0,7c0.6-1,1-2.2,1-3.5C707.6,89.8,707.2,88.6,706.6,87.6"/>
		<path class="st21" d="M694.3,93.7l0.2,0.2v-0.1C694.4,93.7,694.4,93.7,694.3,93.7 M703.5,92h-2.8c-1.2,0.9-2.7,1.6-4.4,1.7v1.9
			l2,2c0.7,0.2,1.5,0.4,2.3,0.4c1,0,2-0.2,2.9-0.6L703.5,92 M703.5,88.3c-0.3,0.7-0.6,1.4-1.1,1.9h1.1V88.3"/>
		<path d="M694.1,93.7c0.7,1.8,2.3,3.3,4.2,4l-2-2v-1.9c-0.3,0-0.6,0-0.9,0c-0.3,0-0.6,0-0.9,0v0.1l-0.2-0.2
			C694.2,93.7,694.2,93.7,694.1,93.7"/>
		<path class="st3" d="M694.1,93.7c0.7,1.8,2.3,3.3,4.2,4l-2-2v-1.9c-0.3,0-0.6,0-0.9,0c-0.3,0-0.6,0-0.9,0v0.1l-0.2-0.2
			C694.2,93.7,694.2,93.7,694.1,93.7"/>
		<path d="M704,85.1c0,0,0,0.1,0,0.1c0,1.1-0.2,2.1-0.6,3v1.9h-1.1c-0.5,0.7-1.1,1.3-1.8,1.8h2.8l0,5.4c0.7-0.3,1.3-0.7,1.8-1.2
			l0-10.2C704.9,85.7,704.5,85.4,704,85.1"/>
		<path class="st3" d="M704,85.1c0,0,0,0.1,0,0.1c0,1.1-0.2,2.1-0.6,3v1.9h-1.1c-0.5,0.7-1.1,1.3-1.8,1.8h2.8l0,5.4
			c0.7-0.3,1.3-0.7,1.8-1.2l0-10.2C704.9,85.7,704.5,85.4,704,85.1"/>
		<path class="st17" d="M763.3,41.2c-0.7,0-1.4,0.1-2.1,0.3c-0.3,2.4-1.1,4.7-2.4,6.7c0.4,0,0.8,0,1.2,0c3.9,0,7.3,1.6,9.9,4.1
			c0.6-1.1,0.9-2.3,0.9-3.6C770.8,44.6,767.4,41.2,763.3,41.2"/>
		<path class="st33" d="M760,48.2c-0.4,0-0.8,0-1.2,0c-0.7,1.1-1.6,2.1-2.6,3c1.1,2.8,3.8,4.8,7,4.8c2.8,0,5.3-1.6,6.6-3.9
			C767.4,49.7,763.9,48.2,760,48.2"/>
		<path class="st47" d="M761.2,41.5c-3.1,0.9-5.4,3.8-5.4,7.1c0,0.1,0,0.1,0,0.2c1-0.3,2-0.5,3.1-0.6
			C760.1,46.2,760.9,44,761.2,41.5"/>
		<path class="st33" d="M758.8,48.2c-1.1,0.1-2.1,0.3-3.1,0.6c0,0.9,0.2,1.7,0.5,2.4C757.2,50.4,758.1,49.3,758.8,48.2"/>
		<path class="st11" d="M734.4,58.3l-0.1,0.1c0.1,0.1,0.2,0.2,0.2,0.3c0-0.1,0.1-0.1,0.1-0.2L734.4,58.3 M739,53.8l-0.5,0.5
			c0.2-0.1,0.5-0.3,0.7-0.4C739.2,53.9,739.1,53.8,739,53.8 M719,43.1c-0.1,0.8-0.2,1.7-0.2,2.6c0,3.8,1.4,7.3,3.8,10
			c1.2-0.5,2.5-0.8,3.9-0.8c2.5,0,4.7,0.9,6.5,2.3l0.1-0.1L719,43.1 M722.2,36.2c-1.2,1.4-2.1,3.1-2.7,4.9l3.1,3.1l3.8-3.8
			L722.2,36.2 M726.8,32.5c-1.2,0.6-2.3,1.5-3.3,2.4l3.3,3.3V32.5 M733.2,30.8c-1.6,0.1-3.1,0.4-4.5,0.9v8.7c0,0.2-0.1,0.5-0.3,0.6
			l-4.4,4.4l10.5,10.4l2.9-2.9c-4.4-2.7-7.2-7.5-7.2-13C730.1,36.5,731.3,33.3,733.2,30.8"/>
		<path d="M728.6,31.7c-0.6,0.2-1.2,0.5-1.8,0.8v5.7l-3.3-3.3c-0.4,0.4-0.8,0.9-1.2,1.3l4.2,4.2l-3.8,3.8l-3.1-3.1
			c-0.2,0.7-0.4,1.3-0.5,2l14.1,14l-0.1,0.1c0.5,0.4,0.9,0.8,1.3,1.3l0.1-0.1l0.2,0.2c0.8-1.8,2.2-3.2,3.9-4.2l0.5-0.5
			c-0.6-0.3-1.1-0.6-1.7-0.9l-2.9,2.9l-10.5-10.4l4.4-4.4c0.2-0.2,0.3-0.4,0.3-0.6L728.6,31.7"/>
		<path class="st3" d="M728.6,31.7c-0.6,0.2-1.2,0.5-1.8,0.8v5.7l-3.3-3.3c-0.4,0.4-0.8,0.9-1.2,1.3l4.2,4.2l-3.8,3.8l-3.1-3.1
			c-0.2,0.7-0.4,1.3-0.5,2l14.1,14l-0.1,0.1c0.5,0.4,0.9,0.8,1.3,1.3l0.1-0.1l0.2,0.2c0.8-1.8,2.2-3.2,3.9-4.2l0.5-0.5
			c-0.6-0.3-1.1-0.6-1.7-0.9l-2.9,2.9l-10.5-10.4l4.4-4.4c0.2-0.2,0.3-0.4,0.3-0.6L728.6,31.7"/>
		<path class="st47" d="M734.6,58.5c0,0.1-0.1,0.1-0.1,0.2c0.4,0.6,0.8,1.2,1.2,1.8c0.3,0,0.6-0.1,0.9-0.1L734.6,58.5 M739.3,53.9
			c-0.3,0.1-0.5,0.3-0.7,0.4l-2.8,2.8l2.9,2.9c1.9-0.6,3.6-1.5,5-2.8l1-1h0.1c0.3-0.3,0.5-0.6,0.8-0.8
			C743.3,55.3,741.2,54.8,739.3,53.9"/>
		<path d="M744.8,56.1L744.8,56.1l-1.1,1C744,56.8,744.4,56.5,744.8,56.1 M738.5,54.3c-1.7,1-3,2.5-3.9,4.2l1.9,1.9
			c0.7-0.1,1.4-0.3,2.1-0.5l-2.9-2.9L738.5,54.3"/>
		<path class="st3" d="M744.8,56.1L744.8,56.1l-1.1,1C744,56.8,744.4,56.5,744.8,56.1 M738.5,54.3c-1.7,1-3,2.5-3.9,4.2l1.9,1.9
			c0.7-0.1,1.4-0.3,2.1-0.5l-2.9-2.9L738.5,54.3"/>
		<path class="st47" d="M734.3,58.5l-2.1,2.1c0.6,0.1,1.1,0.1,1.7,0.1c0.1-0.7,0.4-1.3,0.6-1.9C734.5,58.6,734.4,58.6,734.3,58.5
			 M726.5,54.9c-1.4,0-2.7,0.3-3.9,0.8c0.8,0.9,1.7,1.7,2.8,2.4l1.7-1.6h1.3l0,1.3L727,59c1,0.5,2,0.9,3,1.2l3-3
			C731.3,55.8,729,54.9,726.5,54.9"/>
		<path class="st38" d="M733,57.2l-3,3c0.7,0.2,1.4,0.3,2.1,0.4l2.1-2.1C733.9,58,733.5,57.6,733,57.2"/>
		<path class="st48" d="M733,57.2l-3,3c0.7,0.2,1.4,0.3,2.1,0.4l2.1-2.1C733.9,58,733.5,57.6,733,57.2"/>
		<path class="st38" d="M728.3,56.4H727l-1.7,1.6c0.5,0.3,1.1,0.7,1.6,1l1.3-1.3L728.3,56.4"/>
		<path class="st48" d="M728.3,56.4H727l-1.7,1.6c0.5,0.3,1.1,0.7,1.6,1l1.3-1.3L728.3,56.4"/>
		<path class="st49" d="M734.5,58.7c-0.3,0.6-0.5,1.3-0.6,1.9c0,0,0,0,0,0c0.6,0,1.2,0,1.8-0.1C735.4,59.9,735,59.3,734.5,58.7"/>
		<path class="st14" d="M733.9,30.7c-0.3,0-0.5,0-0.8,0c-1.9,2.6-3,5.7-3,9.1c0,5.5,2.9,10.3,7.2,13l1.3-1.3l-4.9-4.8v-1.3h1.3
			l4.9,4.8l4.8-4.7V40l0.9-0.9l0.9,0.9v6c0,0.2-0.1,0.5-0.3,0.6l-7.2,7.2c0.1,0,0.2,0.1,0.2,0.1c1.3-0.6,2.7-1,4.3-1
			c1.2,0,2.3,0.2,3.3,0.6c1.4-2.3,2.2-5,2.2-7.8C749.1,37.4,742.3,30.7,733.9,30.7"/>
		<path class="st7" d="M745.6,39.1l-0.9,0.9v5.7l-4.8,4.7l-4.9-4.8h-1.3v1.3l4.9,4.8l-1.3,1.3c0.5,0.3,1.1,0.6,1.7,0.9l7.2-7.2
			c0.2-0.2,0.3-0.4,0.3-0.6v-6L745.6,39.1"/>
		<path class="st50" d="M745.6,39.1l-0.9,0.9v5.7l-4.8,4.7l-4.9-4.8h-1.3v1.3l4.9,4.8l-1.3,1.3c0.5,0.3,1.1,0.6,1.7,0.9l7.2-7.2
			c0.2-0.2,0.3-0.4,0.3-0.6v-6L745.6,39.1"/>
		<path class="st51" d="M743.5,52.9c-1.5,0-3,0.3-4.3,1c1.9,0.9,4,1.4,6.3,1.4c0.5-0.6,0.9-1.2,1.3-1.8
			C745.8,53.1,744.7,52.9,743.5,52.9"/>
		<path class="st29" d="M694.2,62.2c0,7.1-5.8,12.8-13,12.8s-13-5.7-13-12.8c0-7.1,5.8-12.8,13-12.8
			C688.4,49.4,694.2,55.1,694.2,62.2"/>
		<path class="st21" d="M712.4,80.4c-0.2,0.3-0.5,0.5-0.8,0.8v2.6c0.4,0.2,0.9,0.3,1.4,0.3c1.3,0,2.4-0.6,3.1-1.6V81H713L712.4,80.4
			 M714.5,76.5c-0.3,1-0.7,1.9-1.3,2.7h2.9v-1.4C715.7,77.2,715.2,76.8,714.5,76.5"/>
		<path d="M716.1,77.8v1.4h-2.9c-0.3,0.4-0.6,0.8-0.9,1.2L713,81h3.1v1.4c0.5-0.6,0.8-1.5,0.8-2.3C716.9,79.2,716.6,78.4,716.1,77.8
			"/>
		<path class="st3" d="M716.1,77.8v1.4h-2.9c-0.3,0.4-0.6,0.8-0.9,1.2L713,81h3.1v1.4c0.5-0.6,0.8-1.5,0.8-2.3
			C716.9,79.2,716.6,78.4,716.1,77.8"/>
		<path d="M711.6,81.2c-0.5,0.5-1.1,0.9-1.7,1.3c0.4,0.6,1,1,1.7,1.3V81.2"/>
		<path class="st21" d="M711.6,81.2c-0.5,0.5-1.1,0.9-1.7,1.3c0.4,0.6,1,1,1.7,1.3V81.2"/>
		<path class="st32" d="M713,76.2c-0.5,0-1,0.1-1.4,0.3v4.7c0.3-0.2,0.5-0.5,0.8-0.8l-0.3-0.3l0.9-0.9h0.3c0.5-0.8,1-1.7,1.3-2.7
			C714.1,76.3,713.6,76.2,713,76.2"/>
		<path class="st34" d="M713.3,79.2H713l-0.9,0.9l0.3,0.3C712.7,80,713,79.6,713.3,79.2"/>
		<path class="st32" d="M713.3,79.2H713l-0.9,0.9l0.3,0.3C712.7,80,713,79.6,713.3,79.2"/>
		<path class="st32" d="M709.8,77.9c-0.4,0.6-0.7,1.4-0.7,2.2c0,0.8,0.3,1.6,0.7,2.2V77.9"/>
		<path class="st34" d="M711.6,76.5c-0.7,0.3-1.4,0.8-1.8,1.4v4.4c0,0,0,0.1,0.1,0.1c0.6-0.4,1.2-0.8,1.7-1.3L711.6,76.5"/>
		<path class="st32" d="M711.6,76.5c-0.7,0.3-1.4,0.8-1.8,1.4v4.4c0,0,0,0.1,0.1,0.1c0.6-0.4,1.2-0.8,1.7-1.3L711.6,76.5"/>
		<path class="st21" d="M694.7,76.7c-2,0.2-3.8,1-5.2,2.3c0,0.2,0,0.4,0,0.7c0,2.6-0.9,5-2.5,6.9l7,6.9c-0.3-0.7-0.4-1.5-0.4-2.3
			c0-1.2,0.3-2.3,0.9-3.3v-2.4l0.9-0.9l0.9,0.9v0.3c1.2-0.9,2.7-1.5,4.3-1.5c0.7,0,1.3,0.1,2,0.3l-1.3-1.3c-2.9-1-5.1-3.3-6.2-6.1
			L694.7,76.7"/>
		<path d="M687,86.5c0,0.1-0.1,0.1-0.1,0.2c0.6,3.6,3.6,6.5,7.3,7c0-0.1-0.1-0.2-0.1-0.3L687,86.5 M695.4,84.5l-0.9,0.9v2.4
			c0.5-0.8,1.1-1.5,1.8-2.1v-0.3L695.4,84.5"/>
		<path class="st3" d="M687,86.5c0,0.1-0.1,0.1-0.1,0.2c0.6,3.6,3.6,6.5,7.3,7c0-0.1-0.1-0.2-0.1-0.3L687,86.5 M695.4,84.5l-0.9,0.9
			v2.4c0.5-0.8,1.1-1.5,1.8-2.1v-0.3L695.4,84.5"/>
		<path d="M701.2,83.2l1.3,1.3c0.5,0.2,1,0.4,1.5,0.6c0-0.5,0-0.9-0.1-1.4C703,83.7,702.1,83.5,701.2,83.2 M694.9,76.7
			c-0.1,0-0.2,0-0.2,0l0.4,0.4C695,76.9,695,76.8,694.9,76.7"/>
		<path class="st52" d="M701.2,83.2l1.3,1.3c0.5,0.2,1,0.4,1.5,0.6c0-0.5,0-0.9-0.1-1.4C703,83.7,702.1,83.5,701.2,83.2 M694.9,76.7
			c-0.1,0-0.2,0-0.2,0l0.4,0.4C695,76.9,695,76.8,694.9,76.7"/>
		<path class="st32" d="M700.9,78.7l-0.8,0.8l3.7,3.7C703.3,81.4,702.3,79.8,700.9,78.7 M695.1,77.1c1,2.8,3.3,5.1,6.2,6.1
			L695.1,77.1 M697.5,76.9l1.3,1.3l0.6-0.6C698.8,77.3,698.1,77.1,697.5,76.9"/>
		<path class="st34" d="M695.4,76.7c-0.2,0-0.3,0-0.5,0c0,0.1,0.1,0.3,0.1,0.4l6.2,6.1c0.8,0.3,1.8,0.5,2.7,0.6
			c0-0.2-0.1-0.4-0.1-0.6l-3.7-3.7l0.8-0.8c-0.5-0.4-1-0.7-1.5-1l-0.6,0.6l-1.3-1.3C696.8,76.8,696.1,76.7,695.4,76.7"/>
		<path class="st52" d="M695.4,76.7c-0.2,0-0.3,0-0.5,0c0,0.1,0.1,0.3,0.1,0.4l6.2,6.1c0.8,0.3,1.8,0.5,2.7,0.6
			c0-0.2-0.1-0.4-0.1-0.6l-3.7-3.7l0.8-0.8c-0.5-0.4-1-0.7-1.5-1l-0.6,0.6l-1.3-1.3C696.8,76.8,696.1,76.7,695.4,76.7"/>
		<path class="st32" d="M689.4,79c-1.7,1.6-2.7,3.8-2.7,6.2c0,0.4,0,0.7,0.1,1.1l0.2,0.2c1.5-1.9,2.5-4.3,2.5-6.9
			C689.5,79.4,689.5,79.2,689.4,79"/>
		<path class="st34" d="M686.8,86.3c0,0.1,0,0.2,0.1,0.4c0-0.1,0.1-0.1,0.1-0.2L686.8,86.3"/>
		<path class="st32" d="M686.8,86.3c0,0.1,0,0.2,0.1,0.4c0-0.1,0.1-0.1,0.1-0.2L686.8,86.3"/>
		<path class="st53" d="M694.5,87.8c-0.6,1-0.9,2.1-0.9,3.3c0,0.8,0.1,1.6,0.4,2.3l0.3,0.3c0.1,0,0.1,0,0.2,0V87.8 M700.6,84.2
			c-1.6,0-3.1,0.5-4.3,1.5v8.1c1.6-0.2,3.1-0.8,4.4-1.7h-0.1l-0.9-0.9l0.9-0.9h1.9c0.4-0.6,0.8-1.3,1.1-1.9v-2.9l-0.9-0.9
			C701.9,84.3,701.3,84.2,700.6,84.2"/>
		<path d="M694,93.4c0,0.1,0.1,0.2,0.1,0.3c0.1,0,0.1,0,0.2,0L694,93.4 M696.3,85.7c-0.7,0.6-1.4,1.3-1.8,2.1v6c0.3,0,0.6,0,0.9,0
			c0.3,0,0.6,0,0.9,0L696.3,85.7"/>
		<path class="st3" d="M694,93.4c0,0.1,0.1,0.2,0.1,0.3c0.1,0,0.1,0,0.2,0L694,93.4 M696.3,85.7c-0.7,0.6-1.4,1.3-1.8,2.1v6
			c0.3,0,0.6,0,0.9,0c0.3,0,0.6,0,0.9,0L696.3,85.7"/>
		<path d="M702.4,90.2h-1.9l-0.9,0.9l0.9,0.9h0.1C701.3,91.5,701.9,90.9,702.4,90.2 M702.6,84.5l0.9,0.9v2.9c0.4-0.9,0.6-2,0.6-3
			c0,0,0-0.1,0-0.1C703.6,84.9,703.1,84.6,702.6,84.5"/>
		<path class="st3" d="M702.4,90.2h-1.9l-0.9,0.9l0.9,0.9h0.1C701.3,91.5,701.9,90.9,702.4,90.2 M702.6,84.5l0.9,0.9v2.9
			c0.4-0.9,0.6-2,0.6-3c0,0,0-0.1,0-0.1C703.6,84.9,703.1,84.6,702.6,84.5"/>
		<path class="st17" d="M649.8,44.2c-3,0-5.5,2.4-5.5,5.4c0,3,2.5,5.4,5.5,5.4c3,0,5.5-2.4,5.5-5.4
			C655.2,46.6,652.8,44.2,649.8,44.2"/>
		<path class="st21" d="M724.9,75c-2.9,0-5.2,2.3-5.2,5.1c0,1,0.3,1.9,0.8,2.7c0.1,0,0.2,0,0.3,0l3.4-3.4h1.3v1.3l-2.6,2.6
			c1.1,0.4,2,1,2.8,1.8c1.1-0.2,2.1-0.7,2.9-1.5c-0.7-1.3-1.1-2.7-1.1-4.2c0-1.1,0.2-2.2,0.6-3.2C727.3,75.4,726.2,75,724.9,75"/>
		<path d="M725.6,79.5h-1.3l-3.4,3.4c0.7,0.1,1.4,0.2,2.1,0.5l2.6-2.6L725.6,79.5"/>
		<path class="st3" d="M725.6,79.5h-1.3l-3.4,3.4c0.7,0.1,1.4,0.2,2.1,0.5l2.6-2.6L725.6,79.5"/>
		<path class="st32" d="M728.2,76.2c-0.4,1-0.6,2.1-0.6,3.2c0,1.5,0.4,3,1.1,4.2c0.9-0.9,1.4-2.2,1.4-3.5
			C730.1,78.5,729.4,77.1,728.2,76.2"/>
		<path class="st53" d="M720.6,82.9c0.9,1.4,2.5,2.4,4.4,2.4c0.3,0,0.6,0,0.9-0.1c-0.8-0.8-1.8-1.4-2.8-1.8
			c-0.7-0.2-1.4-0.4-2.1-0.5C720.8,82.9,720.7,82.9,720.6,82.9"/>
		<path class="st17" d="M695.3,54.5c-0.2,1-0.4,2-0.4,3c0,3.2,1.2,6.2,3.2,8.4c1.1-0.9,2.4-1.6,3.8-2l-6.3-6.3l-0.1,0l0-0.1l0,0
			c-0.2-0.2-0.3-0.4-0.3-0.6L695.3,54.5 M710.2,48.1c-0.6,0.1-1.1,0.2-1.7,0.2l0,15.9c2.2,0.8,4,2.4,5.1,4.3
			c0.6-0.3,1.1-0.7,1.7-1.1l-4.8-4.5l0,0l0,0l0,0c0,0-0.1-0.1-0.1-0.1l0-0.1l0-0.1c0,0,0-0.1,0-0.1c0,0,0-0.1,0-0.1l0-0.1l0-0.1
			L710.2,48.1 M701.2,46.6c-1.6,0.9-3,2.2-4.1,3.8v4.3l4.2-4.1h1.3v1.3l-5,5l6.7,6.6c0.2,0,0.3,0,0.5,0c0.6,0,1.3,0.1,1.9,0.2
			l0-15.4C704.6,48.1,702.8,47.6,701.2,46.6 M714,46.6c-0.6,0.4-1.3,0.7-2,0.9v12.7l4.2-3.8l1.3,0.1l0,1.3l-5,4.6l4,3.8
			c0-0.4-0.1-0.8-0.1-1.2c0-3.2,1.5-6.1,3.9-7.9C720.1,52.6,717.6,48.7,714,46.6"/>
		<path d="M697.1,50.4c-0.8,1.2-1.5,2.6-1.8,4v2.4c0,0.2,0.1,0.5,0.3,0.6l0,0l0,0.1l0.1,0l6.3,6.3c0.7-0.2,1.4-0.3,2.2-0.4l-6.7-6.6
			l5-5v-1.3h-1.3l-4.2,4.1V50.4 M706.6,48.3l0,15.4c0.6,0.1,1.2,0.3,1.8,0.5l0-15.9c-0.3,0-0.6,0-0.9,0
			C707.2,48.3,706.9,48.3,706.6,48.3"/>
		<path class="st3" d="M697.1,50.4c-0.8,1.2-1.5,2.6-1.8,4v2.4c0,0.2,0.1,0.5,0.3,0.6l0,0l0,0.1l0.1,0l6.3,6.3
			c0.7-0.2,1.4-0.3,2.2-0.4l-6.7-6.6l5-5v-1.3h-1.3l-4.2,4.1V50.4 M706.6,48.3l0,15.4c0.6,0.1,1.2,0.3,1.8,0.5l0-15.9
			c-0.3,0-0.6,0-0.9,0C707.2,48.3,706.9,48.3,706.6,48.3"/>
		<path d="M712,47.5c-0.6,0.2-1.2,0.4-1.8,0.5v14.2l0,0.1l0,0.1c0,0,0,0.1,0,0.1c0,0,0,0,0,0.1l0,0.1l0,0.1c0,0,0,0.1,0.1,0.1l0,0
			l0,0l0,0l4.8,4.5c0.4-0.3,0.9-0.7,1.2-1.1c0-0.1,0-0.2,0-0.3l-4-3.8l5-4.6l0-1.3l-1.3-0.1l-4.2,3.8L712,47.5"/>
		<path class="st3" d="M712,47.5c-0.6,0.2-1.2,0.4-1.8,0.5v14.2l0,0.1l0,0.1c0,0,0,0.1,0,0.1c0,0,0,0,0,0.1l0,0.1l0,0.1
			c0,0,0,0.1,0.1,0.1l0,0l0,0l0,0l4.8,4.5c0.4-0.3,0.9-0.7,1.2-1.1c0-0.1,0-0.2,0-0.3l-4-3.8l5-4.6l0-1.3l-1.3-0.1l-4.2,3.8
			L712,47.5"/>
		<path class="st54" d="M720.2,57c-2.4,1.8-3.9,4.7-3.9,7.9c0,0.4,0,0.8,0.1,1.2l0.2,0.1c2.3-2.3,3.7-5.4,3.7-8.8
			C720.2,57.3,720.2,57.2,720.2,57"/>
		<path class="st38" d="M716.4,66.1c0,0.1,0,0.2,0,0.3c0,0,0.1-0.1,0.1-0.1L716.4,66.1"/>
		<path class="st55" d="M716.4,66.1c0,0.1,0,0.2,0,0.3c0,0,0.1-0.1,0.1-0.1L716.4,66.1"/>
		<path class="st24" d="M708.4,64.2l0,5.8c1.9-0.1,3.6-0.6,5.1-1.5C712.4,66.5,710.6,65,708.4,64.2 M702,63.8
			c-1.4,0.4-2.7,1.1-3.8,2c2.1,2.3,5.1,3.9,8.5,4.1l0-1.5L702,63.8 M704.7,63.5c-0.2,0-0.3,0-0.5,0l2.4,2.4l0-2.2
			C706,63.5,705.4,63.5,704.7,63.5"/>
		<path class="st34" d="M704.2,63.5c-0.8,0-1.5,0.2-2.2,0.4l4.6,4.6l0,1.5c0.3,0,0.6,0,1,0c0.3,0,0.6,0,0.9,0l0-5.8
			c-0.6-0.2-1.2-0.4-1.8-0.5l0,2.2L704.2,63.5"/>
		<path class="st56" d="M704.2,63.5c-0.8,0-1.5,0.2-2.2,0.4l4.6,4.6l0,1.5c0.3,0,0.6,0,1,0c0.3,0,0.6,0,0.9,0l0-5.8
			c-0.6-0.2-1.2-0.4-1.8-0.5l0,2.2L704.2,63.5"/>
		<path class="st11" d="M670.7,33.9c-1.9,0-3.6,0.4-5.3,1.1c0.1,0.4,0.1,0.8,0.1,1.2c0,4.3-3.5,7.9-7.8,8c-0.2,0.9-0.3,1.9-0.3,2.9
			c0,2,0.4,3.8,1.2,5.5c1.4-2.1,3.8-3.4,6.5-3.4c1.8,0,3.4,0.6,4.7,1.5v-3.5l0.9-0.9l0.9,0.9v5.4c0.1,0.2,0.2,0.4,0.4,0.6
			c1.9-1.9,4.3-3.2,7-3.6c-1.1-1.5-1.8-3.3-1.8-5.3c0-0.4,0-0.9,0.1-1.3l-3.1-3.1v-1.3h1.3l2.4,2.4c0.5-1.2,1.2-2.3,2.2-3.2
			C677.7,35.4,674.4,33.9,670.7,33.9"/>
		<path d="M670.7,46.3l-0.9,0.9v3.5c0.7,0.5,1.3,1.2,1.8,1.9v-5.4L670.7,46.3 M675.5,38.6h-1.3v1.3l3.1,3.1c0.1-0.7,0.3-1.4,0.5-2
			L675.5,38.6"/>
		<path class="st3" d="M670.7,46.3l-0.9,0.9v3.5c0.7,0.5,1.3,1.2,1.8,1.9v-5.4L670.7,46.3 M675.5,38.6h-1.3v1.3l3.1,3.1
			c0.1-0.7,0.3-1.4,0.5-2L675.5,38.6"/>
		<path class="st47" d="M671.6,52.6v0.9c0.1-0.1,0.2-0.2,0.4-0.4C671.9,53,671.8,52.8,671.6,52.6 M665.1,49.2
			c-2.7,0-5.1,1.4-6.5,3.4c1.5,3.3,4.4,5.8,7.9,7l-1.9-1.9v-1.3h1.3l2.7,2.7c0.3-1.1,0.7-2.1,1.2-3.1v-5.3
			C668.5,49.8,666.9,49.2,665.1,49.2"/>
		<path d="M665.9,56.4h-1.3v1.3l1.9,1.9c0.6,0.2,1.3,0.4,1.9,0.5c0.1-0.3,0.1-0.6,0.2-0.9L665.9,56.4 M669.8,50.7v5.3
			c0.5-0.9,1.1-1.8,1.8-2.5v-0.9C671.1,51.9,670.5,51.2,669.8,50.7"/>
		<path class="st3" d="M665.9,56.4h-1.3v1.3l1.9,1.9c0.6,0.2,1.3,0.4,1.9,0.5c0.1-0.3,0.1-0.6,0.2-0.9L665.9,56.4 M669.8,50.7v5.3
			c0.5-0.9,1.1-1.8,1.8-2.5v-0.9C671.1,51.9,670.5,51.2,669.8,50.7"/>
		<path class="st14" d="M677.3,42.9c-0.1,0.4-0.1,0.8-0.1,1.3c0,2,0.7,3.8,1.8,5.3c0.6-0.1,1.2-0.2,1.8-0.2v-3L677.3,42.9
			 M682.1,40.3l-2.4,2.4l2.6,2.6c0.2,0.2,0.3,0.4,0.3,0.6v3.5c0.4,0,0.8,0.1,1.1,0.2c0.2-0.8,0.2-1.7,0.2-2.5
			C684,44.6,683.3,42.3,682.1,40.3 M680.1,37.7c-0.9,0.9-1.7,2-2.2,3.2l0.6,0.5l2.6-2.6C680.8,38.4,680.4,38.1,680.1,37.7"/>
		<path class="st7" d="M681.1,38.8l-2.6,2.6l-0.6-0.5c-0.3,0.6-0.4,1.3-0.5,2l3.5,3.4v3c0.1,0,0.3,0,0.4,0c0.5,0,0.9,0,1.4,0.1V46
			c0-0.2-0.1-0.5-0.3-0.6l-2.6-2.6l2.4-2.4C681.8,39.8,681.5,39.3,681.1,38.8"/>
		<path class="st57" d="M681.1,38.8l-2.6,2.6l-0.6-0.5c-0.3,0.6-0.4,1.3-0.5,2l3.5,3.4v3c0.1,0,0.3,0,0.4,0c0.5,0,0.9,0,1.4,0.1V46
			c0-0.2-0.1-0.5-0.3-0.6l-2.6-2.6l2.4-2.4C681.8,39.8,681.5,39.3,681.1,38.8"/>
		<path class="st2" d="M681.2,49.4c-0.1,0-0.3,0-0.4,0c-0.6,0-1.2,0.1-1.8,0.2c-2.7,0.5-5.2,1.8-7,3.6c-0.1,0.1-0.2,0.2-0.4,0.4
			c-0.7,0.8-1.3,1.6-1.8,2.5c-0.5,1-0.9,2-1.2,3.1c-0.1,0.3-0.1,0.6-0.2,0.9c0.7,0.1,1.5,0.2,2.3,0.2c6.5,0,11.9-4.6,13.1-10.6
			c-0.4-0.1-0.8-0.1-1.1-0.2C682.2,49.4,681.7,49.4,681.2,49.4"/>
		<path class="st58" d="M712,45.7v1.9c0.7-0.3,1.4-0.6,2-0.9C713.3,46.3,712.7,45.9,712,45.7 M706.6,45c-2,0.1-3.8,0.7-5.4,1.7
			c1.6,0.9,3.5,1.5,5.4,1.7L706.6,45 M708.4,44.9l0,3.3c0.6,0,1.2-0.1,1.7-0.2v-2.9C709.6,45.1,709,45,708.4,44.9"/>
		<path d="M707.6,44.9c-0.3,0-0.6,0-1,0l0,3.3c0.3,0,0.6,0,0.9,0c0.3,0,0.6,0,0.9,0l0-3.3C708.2,44.9,707.9,44.9,707.6,44.9"/>
		<path class="st3" d="M707.6,44.9c-0.3,0-0.6,0-1,0l0,3.3c0.3,0,0.6,0,0.9,0c0.3,0,0.6,0,0.9,0l0-3.3
			C708.2,44.9,707.9,44.9,707.6,44.9"/>
		<path d="M710.2,45.2v2.9c0.6-0.1,1.2-0.3,1.8-0.5v-1.9C711.4,45.5,710.8,45.3,710.2,45.2"/>
		<path class="st3" d="M710.2,45.2v2.9c0.6-0.1,1.2-0.3,1.8-0.5v-1.9C711.4,45.5,710.8,45.3,710.2,45.2"/>
		<g>
			<path class="st3" d="M553.8,93.1c-0.1,0-0.3-0.1-0.4-0.1c-0.1,0-0.2-0.1-0.4-0.1c-0.1,0-0.2,0-0.4,0c-0.1,0-0.3,0-0.4,0
				c-0.5,0-0.9,0.1-1.3,0.3s-0.7,0.5-0.9,0.8c-0.3,0.4-0.4,0.8-0.6,1.3c-0.1,0.5-0.2,1.1-0.2,1.7c0,0.5,0,0.9,0.1,1.3
				c0.1,0.4,0.2,0.7,0.3,1c0.1,0.3,0.3,0.5,0.4,0.7c0.2,0.2,0.4,0.4,0.6,0.5s0.5,0.2,0.7,0.3c0.3,0.1,0.5,0.1,0.8,0.1
				c0.5,0,1-0.1,1.5-0.2c0.5-0.2,0.9-0.4,1.4-0.7l0.3,0.9c-0.2,0.2-0.5,0.3-0.7,0.5c-0.2,0.1-0.5,0.3-0.8,0.4
				c-0.3,0.1-0.6,0.2-0.9,0.2c-0.3,0.1-0.6,0.1-1,0.1c-0.6,0-1.2-0.1-1.7-0.3c-0.5-0.2-0.9-0.5-1.2-0.9c-0.3-0.4-0.6-0.9-0.8-1.5
				c-0.2-0.6-0.3-1.3-0.3-2.1c0-0.5,0-1,0.1-1.5c0.1-0.5,0.2-0.9,0.4-1.3c0.2-0.4,0.4-0.7,0.6-1c0.2-0.3,0.5-0.6,0.8-0.8
				c0.3-0.2,0.7-0.4,1-0.5c0.4-0.1,0.8-0.2,1.3-0.2c0.5,0,1,0,1.5,0.1c0.4,0.1,0.9,0.2,1.2,0.4l-0.2,2.8l-1,0.1L553.8,93.1z"/>
			<path class="st3" d="M562.8,98.3c0,0.5-0.1,1-0.2,1.5c-0.1,0.4-0.3,0.8-0.6,1.1c-0.3,0.3-0.6,0.6-1,0.7c-0.4,0.2-0.8,0.3-1.4,0.3
				c-0.5,0-0.9-0.1-1.3-0.2c-0.4-0.1-0.7-0.3-0.9-0.6c-0.3-0.3-0.4-0.6-0.6-1c-0.1-0.4-0.2-0.9-0.2-1.5c0-0.5,0.1-1,0.2-1.5
				c0.1-0.4,0.4-0.8,0.6-1.2c0.3-0.3,0.6-0.6,1-0.7c0.4-0.2,0.8-0.3,1.3-0.3c0.5,0,0.9,0.1,1.3,0.2s0.7,0.3,0.9,0.6
				c0.2,0.3,0.4,0.6,0.6,1C562.7,97.2,562.8,97.7,562.8,98.3z M561.6,98.4c0-0.4,0-0.7-0.1-1c-0.1-0.3-0.2-0.6-0.3-0.8
				s-0.3-0.4-0.6-0.5s-0.5-0.2-0.8-0.2c-0.3,0-0.6,0.1-0.8,0.2c-0.2,0.1-0.4,0.3-0.6,0.5c-0.2,0.2-0.3,0.5-0.4,0.8
				c-0.1,0.3-0.1,0.7-0.1,1.1c0,0.5,0,0.9,0.1,1.2c0.1,0.3,0.2,0.6,0.4,0.8c0.2,0.2,0.4,0.3,0.6,0.4c0.2,0.1,0.5,0.1,0.8,0.1
				c0.3,0,0.6-0.1,0.8-0.2c0.2-0.1,0.4-0.3,0.6-0.5c0.2-0.2,0.3-0.5,0.4-0.8C561.5,99.1,561.6,98.8,561.6,98.4z"/>
			<path class="st3" d="M568.8,101.8v-4.9c0-0.1,0-0.3,0-0.4c0-0.1-0.1-0.2-0.1-0.3c-0.1-0.1-0.2-0.2-0.3-0.2
				c-0.1-0.1-0.3-0.1-0.4-0.1c-0.1,0-0.3,0-0.5,0.1c-0.2,0.1-0.4,0.1-0.5,0.2c-0.2,0.1-0.4,0.2-0.6,0.4c-0.2,0.1-0.4,0.3-0.6,0.5
				v4.7h-1.2v-6.7l1-0.1c0,0,0,0.1,0.1,0.2s0,0.2,0,0.3c0,0.1,0,0.2,0,0.3c0,0.1,0,0.2,0,0.4c0.2-0.2,0.5-0.4,0.7-0.6
				c0.2-0.2,0.4-0.3,0.7-0.4c0.2-0.1,0.4-0.2,0.6-0.2c0.2,0,0.4-0.1,0.6-0.1c0.3,0,0.6,0,0.8,0.1c0.2,0.1,0.4,0.2,0.5,0.3
				c0.1,0.2,0.2,0.3,0.3,0.6c0.1,0.2,0.1,0.5,0.1,0.8v5L568.8,101.8L568.8,101.8z"/>
			<path class="st3" d="M576.7,100c0,0.3,0,0.5-0.1,0.7c-0.1,0.2-0.3,0.4-0.5,0.6c-0.2,0.2-0.5,0.3-0.8,0.4
				c-0.3,0.1-0.7,0.2-1.2,0.2c-0.4,0-0.8,0-1.2-0.1s-0.7-0.2-1.1-0.4l0.3-0.9c0.4,0.2,0.7,0.3,1.1,0.4c0.4,0.1,0.7,0.2,1.1,0.2
				c0.2,0,0.5,0,0.6-0.1c0.2,0,0.3-0.1,0.4-0.2c0.1-0.1,0.2-0.2,0.2-0.3c0-0.1,0.1-0.2,0.1-0.3c0-0.1,0-0.2,0-0.3
				c0-0.1-0.1-0.2-0.2-0.3c-0.1-0.1-0.2-0.2-0.4-0.3c-0.2-0.1-0.4-0.2-0.8-0.3c-0.3-0.1-0.5-0.2-0.8-0.3c-0.2-0.1-0.4-0.2-0.6-0.3
				c-0.2-0.1-0.3-0.2-0.4-0.3c-0.1-0.1-0.2-0.2-0.2-0.3c-0.1-0.1-0.1-0.2-0.1-0.4c0-0.1,0-0.3,0-0.5c0-0.3,0.1-0.5,0.2-0.8
				c0.1-0.2,0.3-0.4,0.5-0.6c0.2-0.2,0.5-0.3,0.8-0.4c0.3-0.1,0.7-0.1,1.1-0.1c0.4,0,0.8,0,1.1,0.1c0.3,0.1,0.6,0.2,0.9,0.4
				l-0.3,0.9c-0.1-0.1-0.2-0.1-0.4-0.2s-0.3-0.1-0.5-0.1c-0.2,0-0.3-0.1-0.5-0.1c-0.2,0-0.3,0-0.5,0c-0.2,0-0.5,0-0.6,0.1
				s-0.3,0.1-0.4,0.2c-0.1,0.1-0.2,0.2-0.2,0.3c0,0.1-0.1,0.2-0.1,0.4c0,0.1,0,0.2,0,0.3c0,0.1,0,0.1,0.1,0.2c0,0.1,0.1,0.1,0.2,0.2
				c0.1,0.1,0.2,0.1,0.3,0.2c0.1,0.1,0.2,0.1,0.4,0.2c0.2,0.1,0.3,0.1,0.6,0.2c0.4,0.1,0.8,0.3,1,0.4c0.3,0.1,0.5,0.3,0.6,0.4
				c0.1,0.2,0.2,0.3,0.3,0.5C576.7,99.5,576.7,99.7,576.7,100z"/>
			<path class="st3" d="M583.1,101.4c-0.2,0.1-0.4,0.2-0.6,0.3c-0.2,0.1-0.5,0.1-0.7,0.2c-0.3,0-0.5,0.1-0.8,0.1
				c-0.4,0-0.8-0.1-1.2-0.2c-0.4-0.1-0.7-0.3-0.9-0.5c-0.3-0.2-0.4-0.6-0.6-1c-0.1-0.4-0.2-0.9-0.2-1.4c0-0.6,0.1-1.2,0.2-1.7
				c0.2-0.5,0.4-0.9,0.6-1.2c0.3-0.3,0.6-0.6,1-0.7c0.4-0.2,0.8-0.2,1.3-0.2c0.4,0,0.7,0.1,1,0.2c0.3,0.1,0.5,0.3,0.7,0.5
				c0.2,0.2,0.3,0.5,0.4,0.8c0.1,0.3,0.1,0.6,0.1,1c0,0.1,0,0.2,0,0.2c0,0.1,0,0.2,0,0.2c0,0.1,0,0.2,0,0.3c0,0.1,0,0.2,0,0.3h-4.3
				c0,0.4,0,0.8,0.1,1.1c0.1,0.3,0.2,0.6,0.4,0.8c0.2,0.2,0.4,0.3,0.6,0.4c0.3,0.1,0.5,0.1,0.9,0.1c0.4,0,0.7-0.1,1.1-0.2
				c0.3-0.1,0.7-0.3,1.1-0.5l0.3,0.8C583.5,101.2,583.3,101.3,583.1,101.4z M582.5,97.5c0-0.3,0-0.5-0.1-0.7
				c-0.1-0.2-0.1-0.4-0.3-0.5c-0.1-0.1-0.3-0.3-0.4-0.3c-0.2-0.1-0.4-0.1-0.6-0.1c-0.3,0-0.5,0-0.7,0.1s-0.4,0.2-0.6,0.4
				c-0.2,0.2-0.3,0.4-0.4,0.6c-0.1,0.2-0.2,0.5-0.2,0.8h3.3V97.5L582.5,97.5z"/>
			<path class="st3" d="M586.6,103.1c0,0.2-0.1,0.4-0.2,0.6c-0.1,0.2-0.2,0.3-0.3,0.4c-0.1,0.1-0.3,0.2-0.4,0.3
				c-0.2,0.1-0.4,0.2-0.6,0.2c-0.2,0.1-0.5,0.1-0.7,0.1l-0.2-0.9c0.3,0,0.5-0.1,0.6-0.2c0.2-0.1,0.3-0.1,0.4-0.2
				c0.1-0.1,0.2-0.2,0.2-0.4c0-0.2,0.1-0.3,0.1-0.6v-7.5l1.2-0.1v7.3C586.7,102.6,586.6,102.9,586.6,103.1z M585.4,93.5v-1.1h1.3
				v1.1H585.4z"/>
			<path class="st3" d="M594.7,98.3c0,0.5-0.1,1-0.2,1.5c-0.1,0.4-0.3,0.8-0.6,1.1c-0.3,0.3-0.6,0.6-1,0.7c-0.4,0.2-0.8,0.3-1.4,0.3
				c-0.5,0-0.9-0.1-1.3-0.2c-0.4-0.1-0.7-0.3-0.9-0.6c-0.3-0.3-0.4-0.6-0.6-1c-0.1-0.4-0.2-0.9-0.2-1.5c0-0.5,0.1-1,0.2-1.5
				c0.1-0.4,0.4-0.8,0.6-1.2c0.3-0.3,0.6-0.6,1-0.7c0.4-0.2,0.8-0.3,1.3-0.3c0.5,0,0.9,0.1,1.3,0.2c0.4,0.1,0.7,0.3,0.9,0.6
				c0.2,0.3,0.4,0.6,0.6,1C594.6,97.2,594.7,97.7,594.7,98.3z M593.5,98.4c0-0.4,0-0.7-0.1-1c-0.1-0.3-0.2-0.6-0.3-0.8
				s-0.3-0.4-0.6-0.5s-0.5-0.2-0.8-0.2c-0.3,0-0.6,0.1-0.8,0.2c-0.2,0.1-0.4,0.3-0.6,0.5c-0.2,0.2-0.3,0.5-0.4,0.8s-0.1,0.7-0.1,1.1
				c0,0.5,0,0.9,0.1,1.2c0.1,0.3,0.2,0.6,0.4,0.8c0.2,0.2,0.4,0.3,0.6,0.4c0.2,0.1,0.5,0.1,0.8,0.1c0.3,0,0.6-0.1,0.8-0.2
				c0.2-0.1,0.4-0.3,0.6-0.5c0.2-0.2,0.3-0.5,0.4-0.8C593.4,99.1,593.5,98.8,593.5,98.4z"/>
			<path class="st3" d="M606.1,101.8l-5.2-7.3c0,0-0.1-0.1-0.1-0.1c0-0.1-0.1-0.1-0.1-0.2c0-0.1-0.1-0.1-0.1-0.2
				c0-0.1,0-0.1-0.1-0.2v8h-1.1V92h1.1l5.1,7.3c0.1,0.1,0.2,0.3,0.3,0.4c0.1,0.1,0.1,0.3,0.2,0.4v-8h1.1v9.8L606.1,101.8
				L606.1,101.8z"/>
			<path class="st3" d="M614.7,100.9c0.1,0,0.2,0,0.3,0c0.1,0,0.2,0,0.3,0l0.1,0.8c-0.1,0-0.2,0-0.2,0.1c-0.1,0-0.2,0-0.3,0.1
				c-0.1,0-0.2,0-0.3,0c-0.1,0-0.2,0-0.3,0c-0.2,0-0.4,0-0.5-0.1c-0.1,0-0.3-0.1-0.4-0.2c-0.1-0.1-0.2-0.2-0.2-0.3
				c0-0.1-0.1-0.2-0.1-0.4c-0.2,0.2-0.4,0.4-0.6,0.5c-0.2,0.1-0.3,0.2-0.5,0.3c-0.2,0.1-0.3,0.1-0.5,0.1c-0.2,0-0.4,0-0.6,0
				c-0.2,0-0.5,0-0.7-0.1c-0.2-0.1-0.4-0.2-0.6-0.3s-0.3-0.3-0.4-0.6s-0.1-0.5-0.1-0.8c0-0.2,0-0.3,0.1-0.5c0-0.1,0.1-0.3,0.2-0.4
				c0.1-0.1,0.2-0.2,0.4-0.3c0.2-0.1,0.4-0.2,0.7-0.3s0.7-0.2,1.1-0.2c0.4-0.1,0.9-0.1,1.5-0.2v-1.3c0-0.4-0.1-0.6-0.3-0.8
				c-0.2-0.2-0.4-0.3-0.7-0.3c-0.2,0-0.4,0-0.6,0.1c-0.2,0-0.4,0.1-0.6,0.2c-0.2,0.1-0.4,0.2-0.6,0.3c-0.2,0.1-0.4,0.2-0.5,0.3
				l-0.5-0.7c0.2-0.2,0.4-0.3,0.6-0.4s0.4-0.2,0.7-0.3s0.5-0.1,0.8-0.2c0.3,0,0.6-0.1,0.9-0.1c0.6,0,1.1,0.2,1.4,0.5
				c0.3,0.3,0.5,0.8,0.5,1.4v3.6c0,0.1,0,0.2,0,0.3s0,0.1,0.1,0.2c0,0,0.1,0.1,0.2,0.1C614.5,100.9,614.6,100.9,614.7,100.9z
				 M613,99c-0.5,0-1,0.1-1.4,0.1s-0.7,0.1-0.9,0.2s-0.4,0.2-0.5,0.3c-0.1,0.1-0.1,0.2-0.1,0.4c0,0.2,0,0.3,0.1,0.4
				c0,0.1,0.1,0.2,0.2,0.3c0.1,0.1,0.2,0.2,0.3,0.2c0.1,0,0.3,0.1,0.5,0.1c0.1,0,0.3,0,0.4-0.1c0.1,0,0.3-0.1,0.5-0.2
				c0.2-0.1,0.3-0.2,0.5-0.3c0.2-0.1,0.3-0.3,0.5-0.4L613,99L613,99z"/>
			<path class="st3" d="M620.9,96.1c-0.1,0-0.2-0.1-0.3-0.1c-0.1,0-0.2,0-0.3-0.1c-0.1,0-0.2,0-0.3,0c-0.1,0-0.2,0-0.3,0
				c-0.4,0-0.7,0.1-1,0.2c-0.3,0.1-0.5,0.3-0.7,0.5c-0.2,0.2-0.3,0.5-0.4,0.8c-0.1,0.3-0.1,0.7-0.1,1.2c0,0.4,0,0.7,0.1,1
				c0.1,0.3,0.2,0.5,0.3,0.7c0.2,0.2,0.3,0.3,0.6,0.4c0.2,0.1,0.5,0.1,0.9,0.1c0.3,0,0.6,0,0.9-0.1c0.3-0.1,0.6-0.2,0.8-0.4l0.3,0.9
				c-0.3,0.2-0.7,0.3-1.1,0.5c-0.4,0.1-0.8,0.2-1.3,0.2c-0.4,0-0.8-0.1-1.2-0.2c-0.3-0.1-0.6-0.3-0.9-0.6c-0.2-0.3-0.4-0.6-0.5-1
				c-0.1-0.4-0.2-0.9-0.2-1.5c0-0.6,0.1-1.2,0.2-1.6c0.2-0.5,0.4-0.9,0.7-1.2c0.3-0.3,0.6-0.5,1-0.7c0.4-0.2,0.8-0.2,1.3-0.2
				c0.3,0,0.6,0,0.8,0.1c0.3,0,0.5,0.1,0.7,0.2L620.9,96.1z"/>
			<path class="st3" d="M622.9,93.5v-1.1h1.3v1.1H622.9z M622.9,101.8v-6.7l1.2-0.1v6.8H622.9z"/>
			<path class="st3" d="M632.1,98.3c0,0.5-0.1,1-0.2,1.5c-0.1,0.4-0.3,0.8-0.6,1.1c-0.3,0.3-0.6,0.6-1,0.7c-0.4,0.2-0.8,0.3-1.4,0.3
				c-0.5,0-0.9-0.1-1.3-0.2c-0.4-0.1-0.7-0.3-0.9-0.6c-0.3-0.3-0.4-0.6-0.6-1c-0.1-0.4-0.2-0.9-0.2-1.5c0-0.5,0.1-1,0.2-1.5
				c0.1-0.4,0.4-0.8,0.6-1.2c0.3-0.3,0.6-0.6,1-0.7c0.4-0.2,0.8-0.3,1.3-0.3c0.5,0,0.9,0.1,1.3,0.2c0.4,0.1,0.7,0.3,0.9,0.6
				c0.2,0.3,0.4,0.6,0.6,1C632,97.2,632.1,97.7,632.1,98.3z M630.9,98.4c0-0.4,0-0.7-0.1-1c-0.1-0.3-0.2-0.6-0.3-0.8
				s-0.3-0.4-0.6-0.5s-0.5-0.2-0.8-0.2c-0.3,0-0.6,0.1-0.8,0.2c-0.2,0.1-0.4,0.3-0.6,0.5s-0.3,0.5-0.4,0.8s-0.1,0.7-0.1,1.1
				c0,0.5,0,0.9,0.1,1.2c0.1,0.3,0.2,0.6,0.4,0.8c0.2,0.2,0.4,0.3,0.6,0.4c0.2,0.1,0.5,0.1,0.8,0.1c0.3,0,0.6-0.1,0.8-0.2
				c0.2-0.1,0.4-0.3,0.6-0.5c0.2-0.2,0.3-0.5,0.4-0.8C630.8,99.1,630.9,98.8,630.9,98.4z"/>
			<path class="st3" d="M638.1,101.8v-4.9c0-0.1,0-0.3,0-0.4c0-0.1-0.1-0.2-0.1-0.3c-0.1-0.1-0.2-0.2-0.3-0.2
				c-0.1-0.1-0.3-0.1-0.4-0.1c-0.1,0-0.3,0-0.5,0.1c-0.2,0.1-0.4,0.1-0.5,0.2c-0.2,0.1-0.4,0.2-0.6,0.4c-0.2,0.1-0.4,0.3-0.6,0.5
				v4.7h-1.2v-6.7l1-0.1c0,0,0,0.1,0.1,0.2c0,0.1,0,0.2,0,0.3c0,0.1,0,0.2,0,0.3c0,0.1,0,0.2,0,0.4c0.2-0.2,0.5-0.4,0.7-0.6
				c0.2-0.2,0.4-0.3,0.7-0.4c0.2-0.1,0.4-0.2,0.6-0.2c0.2,0,0.4-0.1,0.6-0.1c0.3,0,0.6,0,0.8,0.1c0.2,0.1,0.4,0.2,0.5,0.3
				c0.1,0.2,0.2,0.3,0.3,0.6c0.1,0.2,0.1,0.5,0.1,0.8v5L638.1,101.8L638.1,101.8z"/>
			<path class="st3" d="M646.8,100.9c0.1,0,0.2,0,0.3,0c0.1,0,0.2,0,0.3,0l0.1,0.8c-0.1,0-0.2,0-0.2,0.1c-0.1,0-0.2,0-0.3,0.1
				c-0.1,0-0.2,0-0.3,0c-0.1,0-0.2,0-0.3,0c-0.2,0-0.4,0-0.5-0.1c-0.1,0-0.3-0.1-0.4-0.2c-0.1-0.1-0.2-0.2-0.2-0.3
				c0-0.1-0.1-0.2-0.1-0.4c-0.2,0.2-0.4,0.4-0.6,0.5c-0.2,0.1-0.3,0.2-0.5,0.3c-0.2,0.1-0.3,0.1-0.5,0.1c-0.2,0-0.4,0-0.6,0
				c-0.2,0-0.5,0-0.7-0.1c-0.2-0.1-0.4-0.2-0.6-0.3c-0.2-0.2-0.3-0.3-0.4-0.6s-0.1-0.5-0.1-0.8c0-0.2,0-0.3,0.1-0.5
				c0-0.1,0.1-0.3,0.2-0.4c0.1-0.1,0.2-0.2,0.4-0.3c0.2-0.1,0.4-0.2,0.7-0.3s0.7-0.2,1.1-0.2c0.4-0.1,0.9-0.1,1.5-0.2v-1.3
				c0-0.4-0.1-0.6-0.3-0.8c-0.2-0.2-0.4-0.3-0.7-0.3c-0.2,0-0.4,0-0.6,0.1c-0.2,0-0.4,0.1-0.6,0.2c-0.2,0.1-0.4,0.2-0.6,0.3
				c-0.2,0.1-0.4,0.2-0.5,0.3l-0.5-0.7c0.2-0.2,0.4-0.3,0.6-0.4s0.4-0.2,0.7-0.3s0.5-0.1,0.8-0.2c0.3,0,0.6-0.1,0.9-0.1
				c0.6,0,1.1,0.2,1.4,0.5c0.3,0.3,0.5,0.8,0.5,1.4v3.6c0,0.1,0,0.2,0,0.3s0,0.1,0.1,0.2c0,0,0.1,0.1,0.2,0.1
				C646.6,100.9,646.7,100.9,646.8,100.9z M645.1,99c-0.5,0-1,0.1-1.4,0.1s-0.7,0.1-0.9,0.2s-0.4,0.2-0.5,0.3
				c-0.1,0.1-0.1,0.2-0.1,0.4c0,0.2,0,0.3,0.1,0.4c0,0.1,0.1,0.2,0.2,0.3c0.1,0.1,0.2,0.2,0.3,0.2c0.1,0,0.3,0.1,0.5,0.1
				c0.1,0,0.3,0,0.4-0.1c0.1,0,0.3-0.1,0.5-0.2c0.2-0.1,0.3-0.2,0.5-0.3c0.2-0.1,0.3-0.3,0.5-0.4L645.1,99L645.1,99z"/>
			<path class="st3" d="M650,100.4c0,0.1,0,0.2,0,0.2c0,0.1,0,0.1,0.1,0.2c0,0,0.1,0.1,0.1,0.1c0.1,0,0.2,0,0.3,0c0.1,0,0.2,0,0.3,0
				c0.1,0,0.2,0,0.3,0l0.1,0.8c-0.1,0-0.2,0-0.3,0.1c-0.1,0-0.2,0-0.3,0.1c-0.1,0-0.2,0-0.3,0c-0.1,0-0.2,0-0.3,0
				c-0.2,0-0.4,0-0.5-0.1c-0.1,0-0.3-0.1-0.3-0.2c-0.1-0.1-0.2-0.2-0.2-0.4c0-0.1-0.1-0.3-0.1-0.5v-9.1l1.1-0.1V100.4z"/>
			<path class="st3" d="M490.7,117.4c0-0.1-0.1-0.2-0.1-0.4c0-0.2,0-0.3,0-0.5c-0.1,0.1-0.3,0.2-0.4,0.4c-0.1,0.1-0.3,0.2-0.5,0.3
				c-0.2,0.1-0.4,0.1-0.6,0.2c-0.2,0-0.4,0.1-0.6,0.1c-0.4,0-0.7,0-0.9-0.1c-0.3-0.1-0.5-0.2-0.7-0.4c-0.2-0.2-0.3-0.3-0.5-0.5
				c-0.1-0.2-0.2-0.4-0.3-0.7c-0.1-0.2-0.1-0.5-0.1-0.8c0-0.3,0-0.5,0-0.8c0-0.6,0.1-1.1,0.2-1.6c0.2-0.5,0.4-0.8,0.7-1.1
				c0.3-0.3,0.6-0.5,1-0.7c0.4-0.2,0.8-0.2,1.3-0.2c0.3,0,0.5,0,0.8,0.1c0.2,0,0.4,0.1,0.6,0.2v-3.7l1.2-0.1v10.3L490.7,117.4z
				 M490.5,111.7c-0.2-0.1-0.4-0.2-0.6-0.2c-0.2,0-0.5-0.1-0.7-0.1c-0.3,0-0.6,0.1-0.9,0.2c-0.3,0.1-0.5,0.3-0.6,0.5
				c-0.2,0.2-0.3,0.5-0.4,0.8c-0.1,0.3-0.1,0.7-0.1,1.2c0,0.4,0,0.8,0.1,1.1c0.1,0.3,0.2,0.6,0.3,0.7s0.3,0.3,0.5,0.4
				c0.2,0.1,0.4,0.1,0.7,0.1c0.2,0,0.4,0,0.5-0.1c0.2-0.1,0.3-0.1,0.5-0.2c0.2-0.1,0.3-0.2,0.4-0.2c0.1-0.1,0.2-0.2,0.3-0.3
				L490.5,111.7L490.5,111.7z"/>
			<path class="st3" d="M498.6,116.9c-0.2,0.1-0.4,0.2-0.6,0.3c-0.2,0.1-0.5,0.1-0.7,0.2c-0.3,0-0.5,0.1-0.8,0.1
				c-0.4,0-0.8-0.1-1.2-0.2c-0.4-0.1-0.7-0.3-0.9-0.5c-0.3-0.2-0.4-0.6-0.6-1c-0.1-0.4-0.2-0.9-0.2-1.4c0-0.6,0.1-1.2,0.2-1.7
				c0.2-0.5,0.4-0.9,0.6-1.2c0.3-0.3,0.6-0.6,1-0.7c0.4-0.2,0.8-0.2,1.3-0.2c0.4,0,0.7,0.1,1,0.2c0.3,0.1,0.5,0.3,0.7,0.5
				c0.2,0.2,0.3,0.5,0.4,0.8c0.1,0.3,0.1,0.6,0.1,1c0,0.1,0,0.2,0,0.2c0,0.1,0,0.2,0,0.2c0,0.1,0,0.2,0,0.3c0,0.1,0,0.2,0,0.3h-4.4
				c0,0.4,0,0.8,0.1,1.1c0.1,0.3,0.2,0.6,0.4,0.8c0.2,0.2,0.4,0.3,0.6,0.4c0.3,0.1,0.5,0.1,0.9,0.1c0.4,0,0.7-0.1,1.1-0.2
				c0.3-0.1,0.7-0.3,1.1-0.5l0.3,0.8C498.9,116.7,498.8,116.8,498.6,116.9z M498,113.1c0-0.3,0-0.5-0.1-0.7
				c-0.1-0.2-0.1-0.4-0.3-0.5c-0.1-0.1-0.3-0.3-0.4-0.3c-0.2-0.1-0.4-0.1-0.6-0.1c-0.3,0-0.5,0-0.7,0.1s-0.4,0.2-0.6,0.4
				c-0.2,0.2-0.3,0.4-0.4,0.6c-0.1,0.2-0.2,0.5-0.2,0.8h3.3V113.1L498,113.1z"/>
			<path class="st3" d="M505,116c0,0.1,0,0.2,0,0.2c0,0.1,0,0.1,0.1,0.2c0,0,0.1,0.1,0.1,0.1s0.2,0,0.3,0c0.1,0,0.2,0,0.3,0
				c0.1,0,0.2,0,0.3,0l0.1,0.8c-0.1,0-0.2,0-0.3,0.1c-0.1,0-0.2,0-0.3,0.1c-0.1,0-0.2,0-0.3,0c-0.1,0-0.2,0-0.3,0
				c-0.2,0-0.4,0-0.5-0.1c-0.1,0-0.3-0.1-0.3-0.2c-0.1-0.1-0.2-0.2-0.2-0.4c0-0.1-0.1-0.3-0.1-0.5v-9.1l1.1-0.1V116L505,116z"/>
			<path class="st3" d="M512.8,116.5c0.1,0,0.2,0,0.3,0c0.1,0,0.2,0,0.3,0l0.1,0.8c-0.1,0-0.2,0-0.2,0.1c-0.1,0-0.2,0-0.3,0.1
				c-0.1,0-0.2,0-0.3,0c-0.1,0-0.2,0-0.3,0c-0.2,0-0.4,0-0.5-0.1c-0.1,0-0.3-0.1-0.4-0.2c-0.1-0.1-0.2-0.2-0.2-0.3
				c0-0.1-0.1-0.2-0.1-0.4c-0.2,0.2-0.4,0.4-0.6,0.5c-0.2,0.1-0.3,0.2-0.5,0.3c-0.2,0.1-0.3,0.1-0.5,0.1c-0.2,0-0.4,0-0.6,0
				c-0.2,0-0.5,0-0.7-0.1c-0.2-0.1-0.4-0.2-0.6-0.3c-0.2-0.2-0.3-0.3-0.4-0.6c-0.1-0.2-0.1-0.5-0.1-0.8c0-0.2,0-0.3,0.1-0.5
				c0-0.1,0.1-0.3,0.2-0.4c0.1-0.1,0.2-0.2,0.4-0.3c0.2-0.1,0.4-0.2,0.7-0.3c0.3-0.1,0.7-0.2,1.1-0.2c0.4-0.1,0.9-0.1,1.5-0.2v-1.3
				c0-0.4-0.1-0.6-0.3-0.8c-0.2-0.2-0.4-0.3-0.7-0.3c-0.2,0-0.4,0-0.6,0.1s-0.4,0.1-0.6,0.2c-0.2,0.1-0.4,0.2-0.6,0.3
				c-0.2,0.1-0.4,0.2-0.5,0.3l-0.5-0.7c0.2-0.2,0.4-0.3,0.6-0.4c0.2-0.1,0.4-0.2,0.7-0.3c0.2-0.1,0.5-0.1,0.8-0.2
				c0.3,0,0.6-0.1,0.9-0.1c0.6,0,1.1,0.2,1.4,0.5c0.3,0.3,0.5,0.8,0.5,1.4v3.6c0,0.1,0,0.2,0,0.3s0,0.1,0.1,0.2c0,0,0.1,0.1,0.2,0.1
				C512.6,116.5,512.7,116.5,512.8,116.5z M511.1,114.5c-0.5,0-1,0.1-1.4,0.1s-0.7,0.1-0.9,0.2s-0.4,0.2-0.5,0.3
				c-0.1,0.1-0.1,0.2-0.1,0.4c0,0.2,0,0.3,0.1,0.4c0,0.1,0.1,0.2,0.2,0.3c0.1,0.1,0.2,0.2,0.3,0.2c0.1,0,0.3,0.1,0.5,0.1
				c0.1,0,0.3,0,0.4-0.1c0.1,0,0.3-0.1,0.5-0.2c0.2-0.1,0.3-0.2,0.5-0.3c0.2-0.1,0.3-0.3,0.5-0.4L511.1,114.5L511.1,114.5z"/>
			<path class="st3" d="M521.4,108.4l-1.5,0.1v8l1.5,0.1v0.8h-4.1v-0.8l1.4-0.1v-8l-1.4-0.1v-0.8h4.1V108.4z"/>
			<path class="st3" d="M527.6,117.4v-4.9c0-0.1,0-0.3,0-0.4c0-0.1-0.1-0.2-0.1-0.3c-0.1-0.1-0.2-0.2-0.3-0.2
				c-0.1-0.1-0.3-0.1-0.4-0.1c-0.1,0-0.3,0-0.5,0.1c-0.2,0.1-0.4,0.1-0.5,0.2c-0.2,0.1-0.4,0.2-0.6,0.4c-0.2,0.1-0.4,0.3-0.6,0.5
				v4.7h-1.2v-6.7l1-0.1c0,0,0,0.1,0.1,0.2c0,0.1,0,0.2,0,0.3c0,0.1,0,0.2,0,0.3c0,0.1,0,0.2,0,0.4c0.2-0.2,0.5-0.4,0.7-0.6
				c0.2-0.2,0.4-0.3,0.7-0.4c0.2-0.1,0.4-0.2,0.6-0.2c0.2,0,0.4-0.1,0.6-0.1c0.3,0,0.6,0,0.8,0.1c0.2,0.1,0.4,0.2,0.5,0.3
				c0.1,0.2,0.2,0.3,0.3,0.6c0.1,0.2,0.1,0.5,0.1,0.8v5L527.6,117.4L527.6,117.4z"/>
			<path class="st3" d="M535.3,117.4c0-0.1-0.1-0.2-0.1-0.4c0-0.2,0-0.3,0-0.5c-0.1,0.1-0.3,0.2-0.4,0.4s-0.3,0.2-0.5,0.3
				c-0.2,0.1-0.4,0.1-0.6,0.2c-0.2,0-0.4,0.1-0.6,0.1c-0.4,0-0.7,0-0.9-0.1c-0.3-0.1-0.5-0.2-0.7-0.4c-0.2-0.2-0.3-0.3-0.5-0.5
				c-0.1-0.2-0.2-0.4-0.3-0.7c-0.1-0.2-0.1-0.5-0.1-0.8c0-0.3,0-0.5,0-0.8c0-0.6,0.1-1.1,0.2-1.6c0.2-0.5,0.4-0.8,0.7-1.1
				c0.3-0.3,0.6-0.5,1-0.7s0.8-0.2,1.3-0.2c0.3,0,0.5,0,0.8,0.1c0.2,0,0.4,0.1,0.6,0.2v-3.7l1.2-0.1v10.3L535.3,117.4z M535.1,111.7
				c-0.2-0.1-0.4-0.2-0.6-0.2c-0.2,0-0.5-0.1-0.7-0.1c-0.3,0-0.6,0.1-0.9,0.2c-0.3,0.1-0.5,0.3-0.6,0.5c-0.2,0.2-0.3,0.5-0.4,0.8
				c-0.1,0.3-0.1,0.7-0.1,1.2c0,0.4,0,0.8,0.1,1.1c0.1,0.3,0.2,0.6,0.3,0.7c0.1,0.2,0.3,0.3,0.5,0.4c0.2,0.1,0.4,0.1,0.7,0.1
				c0.2,0,0.4,0,0.5-0.1c0.2-0.1,0.3-0.1,0.5-0.2c0.2-0.1,0.3-0.2,0.4-0.2c0.1-0.1,0.2-0.2,0.3-0.3L535.1,111.7L535.1,111.7z"/>
			<path class="st3" d="M543,117.4c0,0,0-0.1-0.1-0.2c0-0.1,0-0.2,0-0.3c0-0.1,0-0.2,0-0.3c0-0.1,0-0.2,0-0.3
				c-0.2,0.2-0.5,0.4-0.7,0.5c-0.2,0.1-0.4,0.3-0.6,0.3c-0.2,0.1-0.4,0.1-0.6,0.2c-0.2,0-0.4,0.1-0.6,0.1c-0.3,0-0.6,0-0.8-0.1
				c-0.2-0.1-0.4-0.2-0.5-0.4s-0.2-0.4-0.3-0.6c-0.1-0.2-0.1-0.5-0.1-0.8v-4.9l1.2-0.1v4.9c0,0.1,0,0.3,0,0.4c0,0.1,0.1,0.2,0.2,0.3
				c0.1,0.1,0.2,0.2,0.3,0.2c0.1,0.1,0.3,0.1,0.5,0.1c0.1,0,0.3,0,0.5-0.1c0.2,0,0.3-0.1,0.5-0.2c0.2-0.1,0.4-0.2,0.5-0.3
				s0.4-0.3,0.6-0.5v-4.8l1.2-0.1v6.8L543,117.4z"/>
			<path class="st3" d="M550.7,115.5c0,0.3,0,0.5-0.1,0.7c-0.1,0.2-0.3,0.4-0.5,0.6c-0.2,0.2-0.5,0.3-0.8,0.4
				c-0.3,0.1-0.7,0.2-1.2,0.2c-0.4,0-0.8,0-1.2-0.1c-0.4-0.1-0.7-0.2-1.1-0.4l0.3-0.9c0.4,0.2,0.7,0.3,1.1,0.4
				c0.4,0.1,0.7,0.2,1.1,0.2c0.2,0,0.5,0,0.6-0.1c0.2,0,0.3-0.1,0.4-0.2c0.1-0.1,0.2-0.2,0.2-0.3c0-0.1,0.1-0.2,0.1-0.3
				c0-0.1,0-0.2,0-0.3c0-0.1-0.1-0.2-0.2-0.3c-0.1-0.1-0.2-0.2-0.4-0.3c-0.2-0.1-0.4-0.2-0.8-0.3c-0.3-0.1-0.5-0.2-0.8-0.3
				c-0.2-0.1-0.4-0.2-0.6-0.3c-0.2-0.1-0.3-0.2-0.4-0.3c-0.1-0.1-0.2-0.2-0.2-0.3c-0.1-0.1-0.1-0.2-0.1-0.4c0-0.1,0-0.3,0-0.5
				c0-0.3,0.1-0.5,0.2-0.8c0.1-0.2,0.3-0.4,0.5-0.6c0.2-0.2,0.5-0.3,0.8-0.4c0.3-0.1,0.7-0.1,1.1-0.1c0.4,0,0.8,0,1.1,0.1
				c0.3,0.1,0.6,0.2,0.9,0.4l-0.3,0.9c-0.1-0.1-0.2-0.1-0.4-0.2s-0.3-0.1-0.5-0.1c-0.2,0-0.3-0.1-0.5-0.1s-0.3,0-0.5,0
				c-0.2,0-0.5,0-0.6,0.1c-0.2,0-0.3,0.1-0.4,0.2c-0.1,0.1-0.2,0.2-0.2,0.3c0,0.1-0.1,0.2-0.1,0.4c0,0.1,0,0.2,0,0.3
				c0,0.1,0,0.1,0.1,0.2c0,0.1,0.1,0.1,0.2,0.2c0.1,0.1,0.2,0.1,0.3,0.2c0.1,0.1,0.2,0.1,0.4,0.2c0.2,0.1,0.3,0.1,0.6,0.2
				c0.4,0.1,0.8,0.3,1,0.4c0.3,0.1,0.5,0.3,0.6,0.4c0.1,0.2,0.2,0.3,0.3,0.5C550.7,115.1,550.7,115.3,550.7,115.5z"/>
			<path class="st3" d="M555.3,117.3c-0.3,0.1-0.7,0.1-1,0.1c-0.5,0-1-0.1-1.2-0.4c-0.3-0.3-0.4-0.7-0.4-1.2v-4.3l-0.9,0l0.1-0.8
				l0.8,0l0.2-2.2l1-0.1v2.3h2.2l-0.1,0.9h-2.1v4.2c0,0.1,0,0.3,0,0.4c0,0.1,0.1,0.2,0.1,0.2c0.1,0.1,0.1,0.1,0.2,0.1
				c0.1,0,0.2,0,0.3,0c0.2,0,0.4,0,0.7-0.1c0.2-0.1,0.5-0.1,0.7-0.3l0.2,0.8C555.9,117.1,555.6,117.3,555.3,117.3z"/>
			<path class="st3" d="M561.2,111.5c-0.1,0-0.1,0-0.1,0c0,0-0.1,0-0.1,0c0,0-0.1,0-0.1,0c0,0-0.1,0-0.1,0c-0.1,0-0.2,0-0.3,0
				c-0.1,0-0.2,0-0.3,0.1s-0.2,0.1-0.3,0.2s-0.2,0.2-0.3,0.3c-0.1,0.1-0.2,0.3-0.3,0.5c-0.1,0.2-0.3,0.5-0.4,0.8v3.9h-1.2v-6.7
				l0.9-0.1c0,0.1,0,0.1,0.1,0.3s0,0.3,0.1,0.4c0,0.2,0,0.3,0,0.5c0,0.2,0,0.4,0,0.6c0.1-0.3,0.2-0.5,0.3-0.7
				c0.1-0.2,0.2-0.4,0.3-0.5c0.1-0.1,0.2-0.2,0.3-0.3c0.1-0.1,0.2-0.2,0.3-0.2c0.1-0.1,0.2-0.1,0.3-0.1c0.1,0,0.2,0,0.3,0
				c0.1,0,0.3,0,0.4,0c0.1,0,0.2,0,0.3,0.1L561.2,111.5z"/>
			<path class="st3" d="M562.5,109.1V108h1.3v1.1H562.5z M562.6,117.4v-6.7l1.2-0.1v6.8H562.6z"/>
			<path class="st3" d="M571.2,116.5c0.1,0,0.2,0,0.3,0c0.1,0,0.2,0,0.3,0l0.1,0.8c-0.1,0-0.2,0-0.2,0.1c-0.1,0-0.2,0-0.3,0.1
				c-0.1,0-0.2,0-0.3,0c-0.1,0-0.2,0-0.3,0c-0.2,0-0.4,0-0.5-0.1c-0.1,0-0.3-0.1-0.4-0.2c-0.1-0.1-0.2-0.2-0.2-0.3
				c0-0.1-0.1-0.2-0.1-0.4c-0.2,0.2-0.4,0.4-0.6,0.5c-0.2,0.1-0.3,0.2-0.5,0.3c-0.2,0.1-0.3,0.1-0.5,0.1c-0.2,0-0.4,0-0.6,0
				c-0.2,0-0.5,0-0.7-0.1c-0.2-0.1-0.4-0.2-0.6-0.3c-0.2-0.2-0.3-0.3-0.4-0.6s-0.1-0.5-0.1-0.8c0-0.2,0-0.3,0.1-0.5
				c0-0.1,0.1-0.3,0.2-0.4c0.1-0.1,0.2-0.2,0.4-0.3c0.2-0.1,0.4-0.2,0.7-0.3c0.3-0.1,0.7-0.2,1.1-0.2c0.4-0.1,0.9-0.1,1.5-0.2v-1.3
				c0-0.4-0.1-0.6-0.3-0.8c-0.2-0.2-0.4-0.3-0.7-0.3c-0.2,0-0.4,0-0.6,0.1c-0.2,0-0.4,0.1-0.6,0.2c-0.2,0.1-0.4,0.2-0.6,0.3
				c-0.2,0.1-0.4,0.2-0.5,0.3l-0.5-0.7c0.2-0.2,0.4-0.3,0.6-0.4c0.2-0.1,0.4-0.2,0.7-0.3c0.2-0.1,0.5-0.1,0.8-0.2
				c0.3,0,0.6-0.1,0.9-0.1c0.6,0,1.1,0.2,1.4,0.5c0.3,0.3,0.5,0.8,0.5,1.4v3.6c0,0.1,0,0.2,0,0.3s0,0.1,0.1,0.2c0,0,0.1,0.1,0.2,0.1
				C571,116.5,571.1,116.5,571.2,116.5z M569.5,114.5c-0.5,0-1,0.1-1.4,0.1s-0.7,0.1-0.9,0.2s-0.4,0.2-0.5,0.3
				c-0.1,0.1-0.1,0.2-0.1,0.4c0,0.2,0,0.3,0.1,0.4c0,0.1,0.1,0.2,0.2,0.3s0.2,0.2,0.3,0.2c0.1,0,0.3,0.1,0.5,0.1
				c0.1,0,0.3,0,0.4-0.1c0.1,0,0.3-0.1,0.5-0.2c0.2-0.1,0.3-0.2,0.5-0.3c0.2-0.1,0.3-0.3,0.5-0.4L569.5,114.5L569.5,114.5z"/>
			<path class="st3" d="M584.9,117.4l0-8.2c0,0.1,0,0.3-0.1,0.4c0,0.1-0.1,0.2-0.1,0.4l-3.2,7.3h-0.9l-3-7.1c0-0.1-0.1-0.1-0.1-0.2
				c0-0.1,0-0.1-0.1-0.2c0-0.1,0-0.1,0-0.2c0-0.1,0-0.1,0-0.2l-0.1,8h-1.1l0.2-9.8h1.3l3.5,8.1l3.6-8.1h1.3l0.1,9.8L584.9,117.4
				L584.9,117.4z"/>
			<path class="st3" d="M593.5,116.5c0.1,0,0.2,0,0.3,0c0.1,0,0.2,0,0.3,0l0.1,0.8c-0.1,0-0.2,0-0.2,0.1c-0.1,0-0.2,0-0.3,0.1
				s-0.2,0-0.3,0c-0.1,0-0.2,0-0.3,0c-0.2,0-0.4,0-0.5-0.1c-0.1,0-0.3-0.1-0.4-0.2c-0.1-0.1-0.2-0.2-0.2-0.3c0-0.1-0.1-0.2-0.1-0.4
				c-0.2,0.2-0.4,0.4-0.6,0.5c-0.2,0.1-0.3,0.2-0.5,0.3c-0.2,0.1-0.3,0.1-0.5,0.1c-0.2,0-0.4,0-0.6,0c-0.2,0-0.5,0-0.7-0.1
				c-0.2-0.1-0.4-0.2-0.6-0.3c-0.2-0.2-0.3-0.3-0.4-0.6s-0.1-0.5-0.1-0.8c0-0.2,0-0.3,0.1-0.5c0-0.1,0.1-0.3,0.2-0.4
				c0.1-0.1,0.2-0.2,0.4-0.3c0.2-0.1,0.4-0.2,0.7-0.3s0.7-0.2,1.1-0.2c0.4-0.1,0.9-0.1,1.5-0.2v-1.3c0-0.4-0.1-0.6-0.3-0.8
				c-0.2-0.2-0.4-0.3-0.7-0.3c-0.2,0-0.4,0-0.6,0.1s-0.4,0.1-0.6,0.2c-0.2,0.1-0.4,0.2-0.6,0.3c-0.2,0.1-0.4,0.2-0.5,0.3l-0.5-0.7
				c0.2-0.2,0.4-0.3,0.6-0.4c0.2-0.1,0.4-0.2,0.7-0.3c0.2-0.1,0.5-0.1,0.8-0.2c0.3,0,0.6-0.1,0.9-0.1c0.6,0,1.1,0.2,1.4,0.5
				c0.3,0.3,0.5,0.8,0.5,1.4v3.6c0,0.1,0,0.2,0,0.3s0,0.1,0.1,0.2c0,0,0.1,0.1,0.2,0.1C593.4,116.5,593.4,116.5,593.5,116.5z
				 M591.9,114.5c-0.5,0-1,0.1-1.4,0.1s-0.7,0.1-0.9,0.2s-0.4,0.2-0.5,0.3c-0.1,0.1-0.1,0.2-0.1,0.4c0,0.2,0,0.3,0.1,0.4
				c0,0.1,0.1,0.2,0.2,0.3s0.2,0.2,0.3,0.2c0.1,0,0.3,0.1,0.5,0.1c0.1,0,0.3,0,0.4-0.1c0.1,0,0.3-0.1,0.5-0.2
				c0.2-0.1,0.3-0.2,0.5-0.3c0.2-0.1,0.3-0.3,0.5-0.4L591.9,114.5L591.9,114.5z"/>
			<path class="st3" d="M599.7,120.2v-3.6c-0.1,0.1-0.3,0.2-0.4,0.3c-0.2,0.1-0.3,0.2-0.5,0.3c-0.2,0.1-0.4,0.1-0.6,0.2
				s-0.4,0.1-0.6,0.1c-0.4,0-0.7,0-0.9-0.1s-0.5-0.2-0.7-0.4c-0.2-0.2-0.3-0.3-0.4-0.6s-0.2-0.4-0.3-0.7c-0.1-0.2-0.1-0.5-0.1-0.8
				s0-0.5,0-0.8c0-0.6,0.1-1.1,0.2-1.6c0.2-0.5,0.4-0.8,0.7-1.1c0.3-0.3,0.6-0.5,1-0.7c0.4-0.2,0.8-0.2,1.3-0.2c0.3,0,0.6,0,0.8,0.1
				c0.3,0,0.5,0.1,0.7,0.1l1.1-0.1v9.6L599.7,120.2z M599.7,111.6c-0.1,0-0.2-0.1-0.3-0.1c-0.1,0-0.2,0-0.3-0.1c-0.1,0-0.2,0-0.4,0
				c-0.1,0-0.2,0-0.4,0c-0.3,0-0.6,0.1-0.9,0.2c-0.3,0.1-0.5,0.3-0.6,0.5c-0.2,0.2-0.3,0.5-0.4,0.8c-0.1,0.3-0.1,0.7-0.1,1.2
				c0,0.4,0,0.8,0.1,1.1s0.2,0.6,0.3,0.7c0.1,0.2,0.3,0.3,0.5,0.4c0.2,0.1,0.4,0.1,0.7,0.1c0.1,0,0.3,0,0.5-0.1
				c0.2,0,0.3-0.1,0.5-0.2c0.2-0.1,0.3-0.1,0.4-0.2c0.1-0.1,0.3-0.2,0.4-0.3V111.6L599.7,111.6z"/>
			<path class="st3" d="M607.5,117.4c0,0,0-0.1-0.1-0.2c0-0.1,0-0.2,0-0.3c0-0.1,0-0.2,0-0.3c0-0.1,0-0.2,0-0.3
				c-0.2,0.2-0.5,0.4-0.7,0.5c-0.2,0.1-0.4,0.3-0.6,0.3c-0.2,0.1-0.4,0.1-0.6,0.2c-0.2,0-0.4,0.1-0.6,0.1c-0.3,0-0.6,0-0.8-0.1
				c-0.2-0.1-0.4-0.2-0.5-0.4s-0.2-0.4-0.3-0.6c-0.1-0.2-0.1-0.5-0.1-0.8v-4.9l1.2-0.1v4.9c0,0.1,0,0.3,0,0.4c0,0.1,0.1,0.2,0.2,0.3
				c0.1,0.1,0.2,0.2,0.3,0.2c0.1,0.1,0.3,0.1,0.5,0.1c0.1,0,0.3,0,0.5-0.1c0.2,0,0.3-0.1,0.5-0.2c0.2-0.1,0.4-0.2,0.5-0.3
				s0.4-0.3,0.6-0.5v-4.8l1.2-0.1v6.8L607.5,117.4z"/>
			<path class="st3" d="M610.8,109.1V108h1.3v1.1H610.8z M610.9,117.4v-6.7l1.2-0.1v6.8H610.9z"/>
			<path class="st3" d="M615.5,116c0,0.1,0,0.2,0,0.2c0,0.1,0,0.1,0.1,0.2c0,0,0.1,0.1,0.1,0.1c0.1,0,0.2,0,0.3,0c0.1,0,0.2,0,0.3,0
				c0.1,0,0.2,0,0.3,0l0.1,0.8c-0.1,0-0.2,0-0.3,0.1c-0.1,0-0.2,0-0.3,0.1c-0.1,0-0.2,0-0.3,0c-0.1,0-0.2,0-0.3,0
				c-0.2,0-0.4,0-0.5-0.1c-0.1,0-0.3-0.1-0.3-0.2c-0.1-0.1-0.2-0.2-0.2-0.4c0-0.1-0.1-0.3-0.1-0.5v-9.1l1.1-0.1V116z"/>
			<path class="st3" d="M623.3,116.5c0.1,0,0.2,0,0.3,0c0.1,0,0.2,0,0.3,0l0.1,0.8c-0.1,0-0.2,0-0.2,0.1c-0.1,0-0.2,0-0.3,0.1
				s-0.2,0-0.3,0c-0.1,0-0.2,0-0.3,0c-0.2,0-0.4,0-0.5-0.1c-0.1,0-0.3-0.1-0.4-0.2c-0.1-0.1-0.2-0.2-0.2-0.3c0-0.1-0.1-0.2-0.1-0.4
				c-0.2,0.2-0.4,0.4-0.6,0.5c-0.2,0.1-0.3,0.2-0.5,0.3c-0.2,0.1-0.3,0.1-0.5,0.1c-0.2,0-0.4,0-0.6,0c-0.2,0-0.5,0-0.7-0.1
				c-0.2-0.1-0.4-0.2-0.6-0.3c-0.2-0.2-0.3-0.3-0.4-0.6s-0.1-0.5-0.1-0.8c0-0.2,0-0.3,0.1-0.5c0-0.1,0.1-0.3,0.2-0.4
				c0.1-0.1,0.2-0.2,0.4-0.3c0.2-0.1,0.4-0.2,0.7-0.3s0.7-0.2,1.1-0.2c0.4-0.1,0.9-0.1,1.5-0.2v-1.3c0-0.4-0.1-0.6-0.3-0.8
				c-0.2-0.2-0.4-0.3-0.7-0.3c-0.2,0-0.4,0-0.6,0.1c-0.2,0-0.4,0.1-0.6,0.2c-0.2,0.1-0.4,0.2-0.6,0.3c-0.2,0.1-0.4,0.2-0.5,0.3
				l-0.5-0.7c0.2-0.2,0.4-0.3,0.6-0.4c0.2-0.1,0.4-0.2,0.7-0.3s0.5-0.1,0.8-0.2c0.3,0,0.6-0.1,0.9-0.1c0.6,0,1.1,0.2,1.4,0.5
				c0.3,0.3,0.5,0.8,0.5,1.4v3.6c0,0.1,0,0.2,0,0.3s0,0.1,0.1,0.2c0,0,0.1,0.1,0.2,0.1C623.1,116.5,623.2,116.5,623.3,116.5z
				 M621.6,114.5c-0.5,0-1,0.1-1.4,0.1s-0.7,0.1-0.9,0.2s-0.4,0.2-0.5,0.3c-0.1,0.1-0.1,0.2-0.1,0.4c0,0.2,0,0.3,0.1,0.4
				c0,0.1,0.1,0.2,0.2,0.3c0.1,0.1,0.2,0.2,0.3,0.2c0.1,0,0.3,0.1,0.5,0.1c0.1,0,0.3,0,0.4-0.1c0.1,0,0.3-0.1,0.5-0.2
				c0.2-0.1,0.3-0.2,0.5-0.3c0.2-0.1,0.3-0.3,0.5-0.4L621.6,114.5L621.6,114.5z"/>
			<path class="st3" d="M629.6,117.4c0-0.1-0.1-0.2-0.1-0.4c0-0.2,0-0.3,0-0.5c-0.1,0.1-0.3,0.2-0.4,0.4c-0.1,0.1-0.3,0.2-0.5,0.3
				c-0.2,0.1-0.4,0.1-0.6,0.2c-0.2,0-0.4,0.1-0.6,0.1c-0.4,0-0.7,0-0.9-0.1c-0.3-0.1-0.5-0.2-0.7-0.4c-0.2-0.2-0.3-0.3-0.5-0.5
				c-0.1-0.2-0.2-0.4-0.3-0.7c-0.1-0.2-0.1-0.5-0.1-0.8c0-0.3,0-0.5,0-0.8c0-0.6,0.1-1.1,0.2-1.6c0.2-0.5,0.4-0.8,0.7-1.1
				c0.3-0.3,0.6-0.5,1-0.7c0.4-0.2,0.8-0.2,1.3-0.2c0.3,0,0.5,0,0.8,0.1c0.2,0,0.4,0.1,0.6,0.2v-3.7l1.2-0.1v10.3L629.6,117.4z
				 M629.5,111.7c-0.2-0.1-0.4-0.2-0.6-0.2c-0.2,0-0.5-0.1-0.7-0.1c-0.3,0-0.6,0.1-0.9,0.2c-0.3,0.1-0.5,0.3-0.6,0.5
				c-0.2,0.2-0.3,0.5-0.4,0.8c-0.1,0.3-0.1,0.7-0.1,1.2c0,0.4,0,0.8,0.1,1.1s0.2,0.6,0.3,0.7c0.1,0.2,0.3,0.3,0.5,0.4
				c0.2,0.1,0.4,0.1,0.7,0.1c0.2,0,0.4,0,0.5-0.1c0.2-0.1,0.3-0.1,0.5-0.2c0.2-0.1,0.3-0.2,0.4-0.2c0.1-0.1,0.2-0.2,0.3-0.3V111.7
				L629.5,111.7z"/>
			<path class="st3" d="M638.6,113.8c0,0.5-0.1,1-0.2,1.5c-0.1,0.4-0.3,0.8-0.6,1.1c-0.3,0.3-0.6,0.6-1,0.7
				c-0.4,0.2-0.8,0.3-1.4,0.3c-0.5,0-0.9-0.1-1.3-0.2c-0.4-0.1-0.7-0.3-0.9-0.6c-0.3-0.3-0.4-0.6-0.6-1c-0.1-0.4-0.2-0.9-0.2-1.5
				c0-0.5,0.1-1,0.2-1.5s0.4-0.8,0.6-1.2c0.3-0.3,0.6-0.6,1-0.7c0.4-0.2,0.8-0.3,1.3-0.3c0.5,0,0.9,0.1,1.3,0.2
				c0.4,0.1,0.7,0.3,0.9,0.6c0.2,0.3,0.4,0.6,0.6,1C638.6,112.7,638.6,113.2,638.6,113.8z M637.4,113.9c0-0.4,0-0.7-0.1-1
				c-0.1-0.3-0.2-0.6-0.3-0.8c-0.1-0.2-0.3-0.4-0.6-0.5s-0.5-0.2-0.8-0.2c-0.3,0-0.6,0.1-0.8,0.2c-0.2,0.1-0.4,0.3-0.6,0.5
				c-0.2,0.2-0.3,0.5-0.4,0.8s-0.1,0.7-0.1,1.1c0,0.5,0,0.9,0.1,1.2c0.1,0.3,0.2,0.6,0.4,0.8c0.2,0.2,0.4,0.3,0.6,0.4
				c0.2,0.1,0.5,0.1,0.8,0.1c0.3,0,0.6-0.1,0.8-0.2c0.2-0.1,0.4-0.3,0.6-0.5c0.2-0.2,0.3-0.5,0.4-0.8
				C637.4,114.7,637.4,114.3,637.4,113.9z"/>
			<path class="st3" d="M644,111.5c-0.1,0-0.1,0-0.1,0c0,0-0.1,0-0.1,0c0,0-0.1,0-0.1,0c0,0-0.1,0-0.1,0c-0.1,0-0.2,0-0.3,0
				c-0.1,0-0.2,0-0.3,0.1c-0.1,0-0.2,0.1-0.3,0.2s-0.2,0.2-0.3,0.3c-0.1,0.1-0.2,0.3-0.3,0.5c-0.1,0.2-0.3,0.5-0.4,0.8v3.9h-1.2
				v-6.7l0.9-0.1c0,0.1,0,0.1,0.1,0.3s0,0.3,0.1,0.4c0,0.2,0,0.3,0,0.5c0,0.2,0,0.4,0,0.6c0.1-0.3,0.2-0.5,0.3-0.7
				c0.1-0.2,0.2-0.4,0.3-0.5c0.1-0.1,0.2-0.2,0.3-0.3c0.1-0.1,0.2-0.2,0.3-0.2c0.1-0.1,0.2-0.1,0.3-0.1c0.1,0,0.2,0,0.3,0
				c0.1,0,0.3,0,0.4,0c0.1,0,0.2,0,0.3,0.1L644,111.5z"/>
			<path class="st3" d="M650.5,116.5c0.1,0,0.2,0,0.3,0c0.1,0,0.2,0,0.3,0l0.1,0.8c-0.1,0-0.2,0-0.2,0.1c-0.1,0-0.2,0-0.3,0.1
				c-0.1,0-0.2,0-0.3,0c-0.1,0-0.2,0-0.3,0c-0.2,0-0.4,0-0.5-0.1c-0.1,0-0.3-0.1-0.4-0.2c-0.1-0.1-0.2-0.2-0.2-0.3
				c0-0.1-0.1-0.2-0.1-0.4c-0.2,0.2-0.4,0.4-0.6,0.5c-0.2,0.1-0.3,0.2-0.5,0.3c-0.2,0.1-0.3,0.1-0.5,0.1c-0.2,0-0.4,0-0.6,0
				c-0.2,0-0.5,0-0.7-0.1c-0.2-0.1-0.4-0.2-0.6-0.3s-0.3-0.3-0.4-0.6s-0.1-0.5-0.1-0.8c0-0.2,0-0.3,0.1-0.5c0-0.1,0.1-0.3,0.2-0.4
				c0.1-0.1,0.2-0.2,0.4-0.3c0.2-0.1,0.4-0.2,0.7-0.3s0.7-0.2,1.1-0.2c0.4-0.1,0.9-0.1,1.5-0.2v-1.3c0-0.4-0.1-0.6-0.3-0.8
				c-0.2-0.2-0.4-0.3-0.7-0.3c-0.2,0-0.4,0-0.6,0.1s-0.4,0.1-0.6,0.2c-0.2,0.1-0.4,0.2-0.6,0.3c-0.2,0.1-0.4,0.2-0.5,0.3l-0.5-0.7
				c0.2-0.2,0.4-0.3,0.6-0.4c0.2-0.1,0.4-0.2,0.7-0.3s0.5-0.1,0.8-0.2c0.3,0,0.6-0.1,0.9-0.1c0.6,0,1.1,0.2,1.4,0.5
				c0.3,0.3,0.5,0.8,0.5,1.4v3.6c0,0.1,0,0.2,0,0.3s0,0.1,0.1,0.2c0,0,0.1,0.1,0.2,0.1C650.4,116.5,650.4,116.5,650.5,116.5z
				 M648.9,114.5c-0.5,0-1,0.1-1.4,0.1s-0.7,0.1-0.9,0.2s-0.4,0.2-0.5,0.3c-0.1,0.1-0.1,0.2-0.1,0.4c0,0.2,0,0.3,0.1,0.4
				c0,0.1,0.1,0.2,0.2,0.3c0.1,0.1,0.2,0.2,0.3,0.2c0.1,0,0.3,0.1,0.5,0.1c0.1,0,0.3,0,0.4-0.1c0.1,0,0.3-0.1,0.5-0.2
				c0.2-0.1,0.3-0.2,0.5-0.3c0.2-0.1,0.3-0.3,0.5-0.4L648.9,114.5L648.9,114.5z"/>
			<path class="st3" d="M463.7,131.1c0.1,0.1,0.1,0.3,0.1,0.4c0,0.1,0,0.2,0,0.3c0-0.1,0-0.2,0-0.3c0-0.1,0.1-0.2,0.1-0.4l1.9-4.9
				h1.1l-3.4,8.2c-0.1,0.2-0.2,0.4-0.3,0.6s-0.3,0.3-0.5,0.4c-0.2,0.1-0.4,0.2-0.7,0.3c-0.3,0.1-0.6,0.1-1,0.1L461,135
				c0.3,0,0.5-0.1,0.7-0.1c0.2,0,0.3-0.1,0.5-0.2c0.1-0.1,0.2-0.1,0.3-0.2c0.1-0.1,0.1-0.2,0.2-0.4l0.6-1.3l-2.5-6.6h1.2
				L463.7,131.1z"/>
			<path class="st3" d="M480,132.9l0-8.2c0,0.1,0,0.3-0.1,0.4c0,0.1-0.1,0.2-0.1,0.4l-3.2,7.3h-0.9l-3-7.1c0-0.1-0.1-0.1-0.1-0.2
				c0-0.1,0-0.1-0.1-0.2c0-0.1,0-0.1,0-0.2c0-0.1,0-0.1,0-0.2l-0.1,8h-1.1l0.2-9.8h1.3l3.5,8.1l3.6-8.1h1.3l0.1,9.8L480,132.9
				L480,132.9z"/>
			<path class="st3" d="M488.6,132c0.1,0,0.2,0,0.3,0c0.1,0,0.2,0,0.3,0l0.1,0.8c-0.1,0-0.2,0-0.2,0.1c-0.1,0-0.2,0-0.3,0.1
				c-0.1,0-0.2,0-0.3,0c-0.1,0-0.2,0-0.3,0c-0.2,0-0.4,0-0.5-0.1c-0.1,0-0.3-0.1-0.4-0.2c-0.1-0.1-0.2-0.2-0.2-0.3s-0.1-0.2-0.1-0.4
				c-0.2,0.2-0.4,0.4-0.6,0.5c-0.2,0.1-0.3,0.2-0.5,0.3c-0.2,0.1-0.3,0.1-0.5,0.1c-0.2,0-0.4,0-0.6,0c-0.2,0-0.5,0-0.7-0.1
				c-0.2-0.1-0.4-0.2-0.6-0.3c-0.2-0.2-0.3-0.3-0.4-0.6c-0.1-0.2-0.1-0.5-0.1-0.8c0-0.2,0-0.3,0.1-0.5c0-0.1,0.1-0.3,0.2-0.4
				c0.1-0.1,0.2-0.2,0.4-0.3c0.2-0.1,0.4-0.2,0.7-0.3c0.3-0.1,0.7-0.2,1.1-0.2c0.4-0.1,0.9-0.1,1.5-0.2V128c0-0.4-0.1-0.6-0.3-0.8
				c-0.2-0.2-0.4-0.3-0.7-0.3c-0.2,0-0.4,0-0.6,0.1c-0.2,0-0.4,0.1-0.6,0.2c-0.2,0.1-0.4,0.2-0.6,0.3c-0.2,0.1-0.4,0.2-0.5,0.3
				l-0.5-0.7c0.2-0.2,0.4-0.3,0.6-0.4s0.4-0.2,0.7-0.3s0.5-0.1,0.8-0.2c0.3,0,0.6-0.1,0.9-0.1c0.6,0,1.1,0.2,1.4,0.5
				c0.3,0.3,0.5,0.8,0.5,1.4v3.6c0,0.1,0,0.2,0,0.3c0,0.1,0,0.1,0.1,0.2c0,0,0.1,0.1,0.2,0.1C488.4,132,488.5,132,488.6,132z
				 M486.9,130.1c-0.5,0-1,0.1-1.4,0.1s-0.7,0.1-0.9,0.2c-0.2,0.1-0.4,0.2-0.5,0.3c-0.1,0.1-0.1,0.2-0.1,0.4c0,0.2,0,0.3,0.1,0.4
				c0,0.1,0.1,0.2,0.2,0.3c0.1,0.1,0.2,0.2,0.3,0.2c0.1,0,0.3,0.1,0.5,0.1c0.1,0,0.3,0,0.4-0.1c0.1,0,0.3-0.1,0.5-0.2
				c0.2-0.1,0.3-0.2,0.5-0.3c0.2-0.1,0.3-0.3,0.5-0.4L486.9,130.1L486.9,130.1z"/>
			<path class="st3" d="M494.9,132.9v-4.9c0-0.1,0-0.3,0-0.4c0-0.1-0.1-0.2-0.1-0.3c-0.1-0.1-0.2-0.2-0.3-0.2
				c-0.1-0.1-0.3-0.1-0.4-0.1c-0.1,0-0.3,0-0.5,0.1c-0.2,0.1-0.4,0.1-0.5,0.2c-0.2,0.1-0.4,0.2-0.6,0.4c-0.2,0.1-0.4,0.3-0.6,0.5
				v4.7h-1.2v-6.7l1-0.1c0,0,0,0.1,0.1,0.2c0,0.1,0,0.2,0,0.3c0,0.1,0,0.2,0,0.3c0,0.1,0,0.2,0,0.4c0.2-0.2,0.5-0.4,0.7-0.6
				c0.2-0.2,0.4-0.3,0.7-0.4c0.2-0.1,0.4-0.2,0.6-0.2c0.2,0,0.4-0.1,0.6-0.1c0.3,0,0.6,0,0.8,0.1c0.2,0.1,0.4,0.2,0.5,0.3
				c0.1,0.2,0.2,0.3,0.3,0.6c0.1,0.2,0.1,0.5,0.1,0.8v5L494.9,132.9L494.9,132.9z"/>
			<path class="st3" d="M502.7,133c0,0,0-0.1-0.1-0.2c0-0.1,0-0.2,0-0.3c0-0.1,0-0.2,0-0.3c0-0.1,0-0.2,0-0.3
				c-0.2,0.2-0.5,0.4-0.7,0.5c-0.2,0.1-0.4,0.3-0.6,0.3c-0.2,0.1-0.4,0.1-0.6,0.2c-0.2,0-0.4,0.1-0.6,0.1c-0.3,0-0.6,0-0.8-0.1
				s-0.4-0.2-0.5-0.4s-0.2-0.4-0.3-0.6c-0.1-0.2-0.1-0.5-0.1-0.8v-4.9l1.2-0.1v4.9c0,0.1,0,0.3,0,0.4c0,0.1,0.1,0.2,0.2,0.3
				c0.1,0.1,0.2,0.2,0.3,0.2c0.1,0.1,0.3,0.1,0.5,0.1c0.1,0,0.3,0,0.5-0.1c0.2,0,0.3-0.1,0.5-0.2c0.2-0.1,0.4-0.2,0.5-0.3
				s0.4-0.3,0.6-0.5v-4.8l1.2-0.1v6.8L502.7,133z"/>
			<path class="st3" d="M509.2,123.6c-0.1,0-0.1,0-0.2,0c-0.1,0-0.2,0-0.3,0c-0.1,0-0.2,0-0.3,0c-0.1,0-0.2,0-0.2,0
				c-0.2,0-0.3,0-0.4,0.1c-0.1,0-0.2,0.1-0.3,0.2c-0.1,0.1-0.1,0.2-0.2,0.4c0,0.1,0,0.3,0,0.5v1.6h1.5l-0.1,0.9h-1.4v5.8h-1.1v-5.8
				l-0.9-0.1l0.1-0.8l0.9-0.1v-1.5c0-0.7,0.2-1.3,0.5-1.6c0.3-0.3,0.8-0.5,1.5-0.5c0.1,0,0.2,0,0.3,0c0.1,0,0.2,0,0.4,0
				c0.1,0,0.2,0,0.3,0.1c0.1,0,0.2,0,0.3,0.1L509.2,123.6z"/>
			<path class="st3" d="M515.5,132c0.1,0,0.2,0,0.3,0c0.1,0,0.2,0,0.3,0l0.1,0.8c-0.1,0-0.2,0-0.2,0.1c-0.1,0-0.2,0-0.3,0.1
				c-0.1,0-0.2,0-0.3,0c-0.1,0-0.2,0-0.3,0c-0.2,0-0.4,0-0.5-0.1c-0.1,0-0.3-0.1-0.4-0.2c-0.1-0.1-0.2-0.2-0.2-0.3
				c0-0.1-0.1-0.2-0.1-0.4c-0.2,0.2-0.4,0.4-0.6,0.5c-0.2,0.1-0.3,0.2-0.5,0.3c-0.2,0.1-0.3,0.1-0.5,0.1c-0.2,0-0.4,0-0.6,0
				c-0.2,0-0.5,0-0.7-0.1c-0.2-0.1-0.4-0.2-0.6-0.3s-0.3-0.3-0.4-0.6c-0.1-0.2-0.1-0.5-0.1-0.8c0-0.2,0-0.3,0.1-0.5
				c0-0.1,0.1-0.3,0.2-0.4c0.1-0.1,0.2-0.2,0.4-0.3c0.2-0.1,0.4-0.2,0.7-0.3c0.3-0.1,0.7-0.2,1.1-0.2c0.4-0.1,0.9-0.1,1.5-0.2V128
				c0-0.4-0.1-0.6-0.3-0.8c-0.2-0.2-0.4-0.3-0.7-0.3c-0.2,0-0.4,0-0.6,0.1c-0.2,0-0.4,0.1-0.6,0.2c-0.2,0.1-0.4,0.2-0.6,0.3
				c-0.2,0.1-0.4,0.2-0.5,0.3l-0.5-0.7c0.2-0.2,0.4-0.3,0.6-0.4s0.4-0.2,0.7-0.3c0.2-0.1,0.5-0.1,0.8-0.2c0.3,0,0.6-0.1,0.9-0.1
				c0.6,0,1.1,0.2,1.4,0.5c0.3,0.3,0.5,0.8,0.5,1.4v3.6c0,0.1,0,0.2,0,0.3s0,0.1,0.1,0.2c0,0,0.1,0.1,0.2,0.1
				C515.3,132,515.4,132,515.5,132z M513.8,130.1c-0.5,0-1,0.1-1.4,0.1s-0.7,0.1-0.9,0.2s-0.4,0.2-0.5,0.3c-0.1,0.1-0.1,0.2-0.1,0.4
				c0,0.2,0,0.3,0.1,0.4c0,0.1,0.1,0.2,0.2,0.3c0.1,0.1,0.2,0.2,0.3,0.2c0.1,0,0.3,0.1,0.5,0.1c0.1,0,0.3,0,0.4-0.1
				c0.1,0,0.3-0.1,0.5-0.2c0.2-0.1,0.3-0.2,0.5-0.3c0.2-0.1,0.3-0.3,0.5-0.4L513.8,130.1L513.8,130.1z"/>
			<path class="st3" d="M521.7,127.2c-0.1,0-0.2-0.1-0.3-0.1c-0.1,0-0.2,0-0.3-0.1c-0.1,0-0.2,0-0.3,0c-0.1,0-0.2,0-0.3,0
				c-0.4,0-0.7,0.1-1,0.2c-0.3,0.1-0.5,0.3-0.7,0.5c-0.2,0.2-0.3,0.5-0.4,0.8c-0.1,0.3-0.1,0.7-0.1,1.2c0,0.4,0,0.7,0.1,1
				c0.1,0.3,0.2,0.5,0.3,0.7c0.2,0.2,0.3,0.3,0.6,0.4c0.2,0.1,0.5,0.1,0.9,0.1c0.3,0,0.6,0,0.9-0.1c0.3-0.1,0.6-0.2,0.8-0.4l0.3,0.9
				c-0.3,0.2-0.7,0.3-1.1,0.5c-0.4,0.1-0.8,0.2-1.3,0.2c-0.4,0-0.8-0.1-1.2-0.2c-0.3-0.1-0.6-0.3-0.9-0.6c-0.2-0.3-0.4-0.6-0.5-1
				c-0.1-0.4-0.2-0.9-0.2-1.5c0-0.6,0.1-1.2,0.2-1.6c0.2-0.5,0.4-0.9,0.7-1.2c0.3-0.3,0.6-0.5,1-0.7c0.4-0.2,0.8-0.2,1.3-0.2
				c0.3,0,0.6,0,0.8,0.1c0.3,0,0.5,0.1,0.7,0.2L521.7,127.2z"/>
			<path class="st3" d="M526.5,132.9c-0.3,0.1-0.7,0.1-1,0.1c-0.5,0-1-0.1-1.2-0.4c-0.3-0.3-0.4-0.7-0.4-1.2v-4.3l-0.9,0l0.1-0.8
				l0.8,0l0.2-2.2l1-0.1v2.3h2.2l-0.1,0.9H525v4.2c0,0.1,0,0.3,0,0.4c0,0.1,0.1,0.2,0.1,0.2c0.1,0.1,0.1,0.1,0.2,0.1
				c0.1,0,0.2,0,0.3,0c0.2,0,0.4,0,0.7-0.1c0.2-0.1,0.5-0.1,0.7-0.3l0.2,0.8C527.1,132.7,526.8,132.8,526.5,132.9z"/>
			<path class="st3" d="M533.2,133c0,0,0-0.1-0.1-0.2c0-0.1,0-0.2,0-0.3c0-0.1,0-0.2,0-0.3c0-0.1,0-0.2,0-0.3
				c-0.2,0.2-0.5,0.4-0.7,0.5c-0.2,0.1-0.4,0.3-0.6,0.3c-0.2,0.1-0.4,0.1-0.6,0.2c-0.2,0-0.4,0.1-0.6,0.1c-0.3,0-0.6,0-0.8-0.1
				c-0.2-0.1-0.4-0.2-0.5-0.4c-0.1-0.2-0.2-0.4-0.3-0.6c-0.1-0.2-0.1-0.5-0.1-0.8v-4.9l1.2-0.1v4.9c0,0.1,0,0.3,0,0.4
				c0,0.1,0.1,0.2,0.2,0.3c0.1,0.1,0.2,0.2,0.3,0.2c0.1,0.1,0.3,0.1,0.5,0.1c0.1,0,0.3,0,0.5-0.1c0.2,0,0.3-0.1,0.5-0.2
				c0.2-0.1,0.4-0.2,0.5-0.3s0.4-0.3,0.6-0.5v-4.8l1.2-0.1v6.8L533.2,133z"/>
			<path class="st3" d="M540,127.1c-0.1,0-0.1,0-0.1,0c0,0-0.1,0-0.1,0c0,0-0.1,0-0.1,0c0,0-0.1,0-0.1,0c-0.1,0-0.2,0-0.3,0
				c-0.1,0-0.2,0-0.3,0.1s-0.2,0.1-0.3,0.2s-0.2,0.2-0.3,0.3c-0.1,0.1-0.2,0.3-0.3,0.5c-0.1,0.2-0.3,0.5-0.4,0.8v3.9h-1.2v-6.7
				l0.9-0.1c0,0.1,0,0.1,0.1,0.3s0,0.3,0.1,0.4c0,0.2,0,0.3,0,0.5c0,0.2,0,0.4,0,0.6c0.1-0.3,0.2-0.5,0.3-0.7
				c0.1-0.2,0.2-0.4,0.3-0.5c0.1-0.1,0.2-0.2,0.3-0.3c0.1-0.1,0.2-0.2,0.3-0.2c0.1-0.1,0.2-0.1,0.3-0.1c0.1,0,0.2,0,0.3,0
				c0.1,0,0.3,0,0.4,0c0.1,0,0.2,0,0.3,0.1L540,127.1z"/>
			<path class="st3" d="M546,132.5c-0.2,0.1-0.4,0.2-0.6,0.3c-0.2,0.1-0.5,0.1-0.7,0.2c-0.3,0-0.5,0.1-0.8,0.1
				c-0.4,0-0.8-0.1-1.2-0.2c-0.4-0.1-0.7-0.3-0.9-0.5c-0.3-0.2-0.4-0.6-0.6-1c-0.1-0.4-0.2-0.9-0.2-1.4c0-0.6,0.1-1.2,0.2-1.7
				c0.2-0.5,0.4-0.9,0.6-1.2c0.3-0.3,0.6-0.6,1-0.7c0.4-0.2,0.8-0.2,1.3-0.2c0.4,0,0.7,0.1,1,0.2c0.3,0.1,0.5,0.3,0.7,0.5
				c0.2,0.2,0.3,0.5,0.4,0.8c0.1,0.3,0.1,0.6,0.1,1c0,0.1,0,0.2,0,0.2c0,0.1,0,0.2,0,0.2c0,0.1,0,0.2,0,0.3c0,0.1,0,0.2,0,0.3h-4.4
				c0,0.4,0,0.8,0.1,1.1c0.1,0.3,0.2,0.6,0.4,0.8c0.2,0.2,0.4,0.3,0.6,0.4c0.3,0.1,0.5,0.1,0.9,0.1c0.4,0,0.7-0.1,1.1-0.2
				c0.3-0.1,0.7-0.3,1.1-0.5l0.3,0.8C546.4,132.3,546.2,132.4,546,132.5z M545.4,128.7c0-0.3,0-0.5-0.1-0.7
				c-0.1-0.2-0.1-0.4-0.3-0.5c-0.1-0.1-0.3-0.3-0.4-0.3c-0.2-0.1-0.4-0.1-0.6-0.1c-0.3,0-0.5,0-0.7,0.1s-0.4,0.2-0.6,0.4
				c-0.2,0.2-0.3,0.4-0.4,0.6c-0.1,0.2-0.2,0.5-0.2,0.8h3.3V128.7L545.4,128.7z"/>
			<path class="st3" d="M551.9,127.1c-0.1,0-0.1,0-0.1,0c0,0-0.1,0-0.1,0c0,0-0.1,0-0.1,0c0,0-0.1,0-0.1,0c-0.1,0-0.2,0-0.3,0
				c-0.1,0-0.2,0-0.3,0.1c-0.1,0-0.2,0.1-0.3,0.2s-0.2,0.2-0.3,0.3c-0.1,0.1-0.2,0.3-0.3,0.5c-0.1,0.2-0.3,0.5-0.4,0.8v3.9h-1.2
				v-6.7l0.9-0.1c0,0.1,0,0.1,0.1,0.3s0,0.3,0.1,0.4c0,0.2,0,0.3,0,0.5c0,0.2,0,0.4,0,0.6c0.1-0.3,0.2-0.5,0.3-0.7
				c0.1-0.2,0.2-0.4,0.3-0.5c0.1-0.1,0.2-0.2,0.3-0.3c0.1-0.1,0.2-0.2,0.3-0.2c0.1-0.1,0.2-0.1,0.3-0.1c0.1,0,0.2,0,0.3,0
				c0.1,0,0.3,0,0.4,0c0.1,0,0.2,0,0.3,0.1L551.9,127.1z"/>
			<path class="st3" d="M558.5,132c0.1,0,0.2,0,0.3,0c0.1,0,0.2,0,0.3,0l0.1,0.8c-0.1,0-0.2,0-0.2,0.1c-0.1,0-0.2,0-0.3,0.1
				c-0.1,0-0.2,0-0.3,0c-0.1,0-0.2,0-0.3,0c-0.2,0-0.4,0-0.5-0.1c-0.1,0-0.3-0.1-0.4-0.2c-0.1-0.1-0.2-0.2-0.2-0.3
				c0-0.1-0.1-0.2-0.1-0.4c-0.2,0.2-0.4,0.4-0.6,0.5c-0.2,0.1-0.3,0.2-0.5,0.3c-0.2,0.1-0.3,0.1-0.5,0.1c-0.2,0-0.4,0-0.6,0
				c-0.2,0-0.5,0-0.7-0.1c-0.2-0.1-0.4-0.2-0.6-0.3c-0.2-0.2-0.3-0.3-0.4-0.6c-0.1-0.2-0.1-0.5-0.1-0.8c0-0.2,0-0.3,0.1-0.5
				c0-0.1,0.1-0.3,0.2-0.4c0.1-0.1,0.2-0.2,0.4-0.3c0.2-0.1,0.4-0.2,0.7-0.3c0.3-0.1,0.7-0.2,1.1-0.2c0.4-0.1,0.9-0.1,1.5-0.2V128
				c0-0.4-0.1-0.6-0.3-0.8c-0.2-0.2-0.4-0.3-0.7-0.3c-0.2,0-0.4,0-0.6,0.1c-0.2,0-0.4,0.1-0.6,0.2c-0.2,0.1-0.4,0.2-0.6,0.3
				c-0.2,0.1-0.4,0.2-0.5,0.3l-0.5-0.7c0.2-0.2,0.4-0.3,0.6-0.4c0.2-0.1,0.4-0.2,0.7-0.3s0.5-0.1,0.8-0.2c0.3,0,0.6-0.1,0.9-0.1
				c0.6,0,1.1,0.2,1.4,0.5c0.3,0.3,0.5,0.8,0.5,1.4v3.6c0,0.1,0,0.2,0,0.3c0,0.1,0,0.1,0.1,0.2c0,0,0.1,0.1,0.2,0.1
				C558.3,132,558.4,132,558.5,132z M556.8,130.1c-0.5,0-1,0.1-1.4,0.1s-0.7,0.1-0.9,0.2c-0.2,0.1-0.4,0.2-0.5,0.3
				c-0.1,0.1-0.1,0.2-0.1,0.4c0,0.2,0,0.3,0.1,0.4c0,0.1,0.1,0.2,0.2,0.3c0.1,0.1,0.2,0.2,0.3,0.2s0.3,0.1,0.5,0.1
				c0.1,0,0.3,0,0.4-0.1c0.1,0,0.3-0.1,0.5-0.2c0.2-0.1,0.3-0.2,0.5-0.3c0.2-0.1,0.3-0.3,0.5-0.4L556.8,130.1L556.8,130.1z"/>
			<path class="st3" d="M567.7,133c0-0.1-0.1-0.2-0.1-0.4c0-0.2,0-0.3,0-0.5c-0.1,0.1-0.3,0.2-0.4,0.4c-0.2,0.1-0.3,0.2-0.5,0.3
				c-0.2,0.1-0.4,0.1-0.6,0.2c-0.2,0-0.4,0.1-0.6,0.1c-0.4,0-0.7,0-0.9-0.1c-0.3-0.1-0.5-0.2-0.7-0.4c-0.2-0.2-0.3-0.3-0.5-0.5
				c-0.1-0.2-0.2-0.4-0.3-0.7c-0.1-0.2-0.1-0.5-0.1-0.8c0-0.3,0-0.5,0-0.8c0-0.6,0.1-1.1,0.2-1.6c0.2-0.5,0.4-0.8,0.7-1.1
				c0.3-0.3,0.6-0.5,1-0.7c0.4-0.2,0.8-0.2,1.3-0.2c0.3,0,0.5,0,0.8,0.1c0.2,0,0.4,0.1,0.6,0.2v-3.7l1.2-0.1v10.3L567.7,133z
				 M567.5,127.2c-0.2-0.1-0.4-0.2-0.6-0.2c-0.2,0-0.5-0.1-0.7-0.1c-0.3,0-0.6,0.1-0.9,0.2c-0.3,0.1-0.5,0.3-0.6,0.5
				c-0.2,0.2-0.3,0.5-0.4,0.8c-0.1,0.3-0.1,0.7-0.1,1.2c0,0.4,0,0.8,0.1,1.1c0.1,0.3,0.2,0.6,0.3,0.7c0.1,0.2,0.3,0.3,0.5,0.4
				c0.2,0.1,0.4,0.1,0.7,0.1c0.2,0,0.4,0,0.5-0.1c0.2-0.1,0.3-0.1,0.5-0.2c0.2-0.1,0.3-0.2,0.4-0.2c0.1-0.1,0.2-0.2,0.3-0.3
				L567.5,127.2L567.5,127.2z"/>
			<path class="st3" d="M575.6,132.5c-0.2,0.1-0.4,0.2-0.6,0.3c-0.2,0.1-0.5,0.1-0.7,0.2c-0.3,0-0.5,0.1-0.8,0.1
				c-0.4,0-0.8-0.1-1.2-0.2c-0.4-0.1-0.7-0.3-0.9-0.5c-0.3-0.2-0.4-0.6-0.6-1c-0.1-0.4-0.2-0.9-0.2-1.4c0-0.6,0.1-1.2,0.2-1.7
				c0.2-0.5,0.4-0.9,0.6-1.2c0.3-0.3,0.6-0.6,1-0.7c0.4-0.2,0.8-0.2,1.3-0.2c0.4,0,0.7,0.1,1,0.2c0.3,0.1,0.5,0.3,0.7,0.5
				c0.2,0.2,0.3,0.5,0.4,0.8c0.1,0.3,0.1,0.6,0.1,1c0,0.1,0,0.2,0,0.2c0,0.1,0,0.2,0,0.2c0,0.1,0,0.2,0,0.3c0,0.1,0,0.2,0,0.3h-4.3
				c0,0.4,0,0.8,0.1,1.1c0.1,0.3,0.2,0.6,0.4,0.8c0.2,0.2,0.4,0.3,0.6,0.4c0.3,0.1,0.5,0.1,0.9,0.1c0.4,0,0.7-0.1,1.1-0.2
				c0.3-0.1,0.7-0.3,1.1-0.5l0.3,0.8C576,132.3,575.8,132.4,575.6,132.5z M575,128.7c0-0.3,0-0.5-0.1-0.7c-0.1-0.2-0.1-0.4-0.3-0.5
				c-0.1-0.1-0.3-0.3-0.4-0.3c-0.2-0.1-0.4-0.1-0.6-0.1c-0.3,0-0.5,0-0.7,0.1s-0.4,0.2-0.6,0.4c-0.2,0.2-0.3,0.4-0.4,0.6
				c-0.1,0.2-0.2,0.5-0.2,0.8h3.3L575,128.7L575,128.7z"/>
			<path class="st3" d="M580.9,132.9v-9.8h5.8l-0.1,0.9h-4.6v3.3h4v0.9h-4v3.7h4.6l0.1,0.9L580.9,132.9L580.9,132.9z"/>
			<path class="st3" d="M591.5,129.5l2.2,3.4h-1.3l-1.7-2.6l-1.6,2.6h-1.2l2.2-3.4l-2.1-3.3h1.3l1.6,2.6l1.6-2.6h1.2L591.5,129.5z"
				/>
			<path class="st3" d="M601.2,129.3c0,0.3,0,0.7-0.1,1c-0.1,0.3-0.1,0.6-0.3,0.9c-0.1,0.3-0.3,0.5-0.4,0.7
				c-0.2,0.2-0.4,0.4-0.6,0.6c-0.2,0.2-0.5,0.3-0.8,0.4s-0.6,0.1-1,0.1c-0.3,0-0.5,0-0.8-0.1c-0.2,0-0.4-0.1-0.6-0.2v3l-1.2,0.1
				v-9.6l1-0.1c0,0,0,0.1,0.1,0.2c0,0.1,0,0.1,0,0.2s0,0.2,0,0.2c0,0.1,0,0.2,0,0.3c0.1-0.1,0.3-0.3,0.5-0.4
				c0.2-0.1,0.3-0.2,0.5-0.3c0.2-0.1,0.4-0.1,0.6-0.2c0.2,0,0.4-0.1,0.6-0.1c0.4,0,0.8,0.1,1.1,0.2c0.3,0.1,0.6,0.3,0.8,0.6
				c0.2,0.3,0.4,0.6,0.5,1C601.1,128.3,601.2,128.8,601.2,129.3z M600,129.4c0-0.4,0-0.7-0.1-1s-0.2-0.5-0.3-0.8
				c-0.1-0.2-0.3-0.4-0.5-0.5c-0.2-0.1-0.5-0.2-0.7-0.2c-0.2,0-0.4,0-0.5,0.1c-0.2,0-0.3,0.1-0.5,0.2s-0.3,0.2-0.4,0.3
				s-0.2,0.2-0.3,0.3v3.9c0.2,0.1,0.4,0.2,0.7,0.2s0.5,0.1,0.8,0.1c0.3,0,0.6-0.1,0.9-0.2c0.3-0.1,0.5-0.3,0.6-0.5
				c0.2-0.2,0.3-0.5,0.4-0.9C599.9,130.2,600,129.9,600,129.4z"/>
			<path class="st3" d="M608.6,129.4c0,0.5-0.1,1-0.2,1.5c-0.1,0.4-0.3,0.8-0.6,1.1c-0.3,0.3-0.6,0.6-1,0.7
				c-0.4,0.2-0.8,0.3-1.4,0.3c-0.5,0-0.9-0.1-1.3-0.2c-0.4-0.1-0.7-0.3-0.9-0.6c-0.3-0.3-0.4-0.6-0.6-1c-0.1-0.4-0.2-0.9-0.2-1.5
				c0-0.5,0.1-1,0.2-1.5c0.1-0.4,0.4-0.8,0.6-1.2c0.3-0.3,0.6-0.6,1-0.7c0.4-0.2,0.8-0.3,1.3-0.3c0.5,0,0.9,0.1,1.3,0.2
				c0.4,0.1,0.7,0.3,0.9,0.6c0.2,0.3,0.4,0.6,0.6,1C608.6,128.3,608.6,128.8,608.6,129.4z M607.4,129.5c0-0.4,0-0.7-0.1-1
				c-0.1-0.3-0.2-0.6-0.3-0.8s-0.3-0.4-0.6-0.5s-0.5-0.2-0.8-0.2c-0.3,0-0.6,0.1-0.8,0.2c-0.2,0.1-0.4,0.3-0.6,0.5s-0.3,0.5-0.4,0.8
				s-0.1,0.7-0.1,1.1c0,0.5,0,0.9,0.1,1.2c0.1,0.3,0.2,0.6,0.4,0.8c0.2,0.2,0.4,0.3,0.6,0.4c0.2,0.1,0.5,0.1,0.8,0.1
				c0.3,0,0.6-0.1,0.8-0.2c0.2-0.1,0.4-0.3,0.6-0.5c0.2-0.2,0.3-0.5,0.4-0.8C607.4,130.3,607.4,129.9,607.4,129.5z"/>
			<path class="st3" d="M614,127.1c-0.1,0-0.1,0-0.1,0c0,0-0.1,0-0.1,0c0,0-0.1,0-0.1,0c0,0-0.1,0-0.1,0c-0.1,0-0.2,0-0.3,0
				c-0.1,0-0.2,0-0.3,0.1c-0.1,0-0.2,0.1-0.3,0.2s-0.2,0.2-0.3,0.3c-0.1,0.1-0.2,0.3-0.3,0.5c-0.1,0.2-0.3,0.5-0.4,0.8v3.9h-1.2
				v-6.7l0.9-0.1c0,0.1,0,0.1,0.1,0.3c0,0.1,0,0.3,0.1,0.4c0,0.2,0,0.3,0,0.5c0,0.2,0,0.4,0,0.6c0.1-0.3,0.2-0.5,0.3-0.7
				c0.1-0.2,0.2-0.4,0.3-0.5c0.1-0.1,0.2-0.2,0.3-0.3c0.1-0.1,0.2-0.2,0.3-0.2c0.1-0.1,0.2-0.1,0.3-0.1c0.1,0,0.2,0,0.3,0
				c0.1,0,0.3,0,0.4,0c0.1,0,0.2,0,0.3,0.1L614,127.1z"/>
			<path class="st3" d="M618.2,132.9c-0.3,0.1-0.7,0.1-1,0.1c-0.5,0-1-0.1-1.2-0.4c-0.3-0.3-0.4-0.7-0.4-1.2v-4.3l-0.9,0l0.1-0.8
				l0.8,0l0.2-2.2l1-0.1v2.3h2.2l-0.1,0.9h-2.1v4.2c0,0.1,0,0.3,0,0.4c0,0.1,0.1,0.2,0.1,0.2c0.1,0.1,0.1,0.1,0.2,0.1
				c0.1,0,0.2,0,0.3,0c0.2,0,0.4,0,0.7-0.1c0.2-0.1,0.5-0.1,0.7-0.3l0.2,0.8C618.8,132.7,618.5,132.8,618.2,132.9z"/>
			<path class="st3" d="M625.7,132c0.1,0,0.2,0,0.3,0c0.1,0,0.2,0,0.3,0l0.1,0.8c-0.1,0-0.2,0-0.2,0.1c-0.1,0-0.2,0-0.3,0.1
				c-0.1,0-0.2,0-0.3,0c-0.1,0-0.2,0-0.3,0c-0.2,0-0.4,0-0.5-0.1c-0.1,0-0.3-0.1-0.4-0.2c-0.1-0.1-0.2-0.2-0.2-0.3
				c0-0.1-0.1-0.2-0.1-0.4c-0.2,0.2-0.4,0.4-0.6,0.5c-0.2,0.1-0.3,0.2-0.5,0.3c-0.2,0.1-0.3,0.1-0.5,0.1c-0.2,0-0.4,0-0.6,0
				c-0.2,0-0.5,0-0.7-0.1c-0.2-0.1-0.4-0.2-0.6-0.3s-0.3-0.3-0.4-0.6s-0.1-0.5-0.1-0.8c0-0.2,0-0.3,0.1-0.5c0-0.1,0.1-0.3,0.2-0.4
				c0.1-0.1,0.2-0.2,0.4-0.3c0.2-0.1,0.4-0.2,0.7-0.3s0.7-0.2,1.1-0.2c0.4-0.1,0.9-0.1,1.5-0.2V128c0-0.4-0.1-0.6-0.3-0.8
				c-0.2-0.2-0.4-0.3-0.7-0.3c-0.2,0-0.4,0-0.6,0.1c-0.2,0-0.4,0.1-0.6,0.2c-0.2,0.1-0.4,0.2-0.6,0.3c-0.2,0.1-0.4,0.2-0.5,0.3
				l-0.5-0.7c0.2-0.2,0.4-0.3,0.6-0.4s0.4-0.2,0.7-0.3s0.5-0.1,0.8-0.2c0.3,0,0.6-0.1,0.9-0.1c0.6,0,1.1,0.2,1.4,0.5
				c0.3,0.3,0.5,0.8,0.5,1.4v3.6c0,0.1,0,0.2,0,0.3s0,0.1,0.1,0.2c0,0,0.1,0.1,0.2,0.1C625.5,132,625.6,132,625.7,132z M624,130.1
				c-0.5,0-1,0.1-1.4,0.1s-0.7,0.1-0.9,0.2c-0.2,0.1-0.4,0.2-0.5,0.3c-0.1,0.1-0.1,0.2-0.1,0.4c0,0.2,0,0.3,0.1,0.4
				c0,0.1,0.1,0.2,0.2,0.3c0.1,0.1,0.2,0.2,0.3,0.2c0.1,0,0.3,0.1,0.5,0.1c0.1,0,0.3,0,0.4-0.1c0.1,0,0.3-0.1,0.5-0.2
				c0.2-0.1,0.3-0.2,0.5-0.3c0.2-0.1,0.3-0.3,0.5-0.4L624,130.1L624,130.1z"/>
			<path class="st3" d="M631.9,127.2c-0.1,0-0.2-0.1-0.3-0.1c-0.1,0-0.2,0-0.3-0.1c-0.1,0-0.2,0-0.3,0c-0.1,0-0.2,0-0.3,0
				c-0.4,0-0.7,0.1-1,0.2c-0.3,0.1-0.5,0.3-0.7,0.5c-0.2,0.2-0.3,0.5-0.4,0.8c-0.1,0.3-0.1,0.7-0.1,1.2c0,0.4,0,0.7,0.1,1
				c0.1,0.3,0.2,0.5,0.3,0.7c0.2,0.2,0.3,0.3,0.6,0.4c0.2,0.1,0.5,0.1,0.9,0.1c0.3,0,0.6,0,0.9-0.1c0.3-0.1,0.6-0.2,0.8-0.4l0.3,0.9
				c-0.3,0.2-0.7,0.3-1.1,0.5c-0.4,0.1-0.8,0.2-1.3,0.2c-0.4,0-0.8-0.1-1.2-0.2c-0.3-0.1-0.6-0.3-0.9-0.6c-0.2-0.3-0.4-0.6-0.5-1
				c-0.1-0.4-0.2-0.9-0.2-1.5c0-0.6,0.1-1.2,0.2-1.6c0.2-0.5,0.4-0.9,0.7-1.2c0.3-0.3,0.6-0.5,1-0.7c0.4-0.2,0.8-0.2,1.3-0.2
				c0.3,0,0.6,0,0.8,0.1c0.3,0,0.5,0.1,0.7,0.2L631.9,127.2z"/>
			<path class="st3" d="M633.8,124.7v-1.1h1.3v1.1H633.8z M633.9,132.9v-6.7l1.2-0.1v6.8H633.9z"/>
			<path class="st3" d="M643.1,129.4c0,0.5-0.1,1-0.2,1.5c-0.1,0.4-0.3,0.8-0.6,1.1c-0.3,0.3-0.6,0.6-1,0.7
				c-0.4,0.2-0.8,0.3-1.4,0.3c-0.5,0-0.9-0.1-1.3-0.2c-0.4-0.1-0.7-0.3-0.9-0.6c-0.3-0.3-0.4-0.6-0.6-1c-0.1-0.4-0.2-0.9-0.2-1.5
				c0-0.5,0.1-1,0.2-1.5c0.1-0.4,0.4-0.8,0.6-1.2c0.3-0.3,0.6-0.6,1-0.7c0.4-0.2,0.8-0.3,1.3-0.3c0.5,0,0.9,0.1,1.3,0.2
				c0.4,0.1,0.7,0.3,0.9,0.6c0.2,0.3,0.4,0.6,0.6,1C643,128.3,643.1,128.8,643.1,129.4z M641.9,129.5c0-0.4,0-0.7-0.1-1
				c-0.1-0.3-0.2-0.6-0.3-0.8s-0.3-0.4-0.6-0.5s-0.5-0.2-0.8-0.2c-0.3,0-0.6,0.1-0.8,0.2c-0.2,0.1-0.4,0.3-0.6,0.5s-0.3,0.5-0.4,0.8
				s-0.1,0.7-0.1,1.1c0,0.5,0,0.9,0.1,1.2c0.1,0.3,0.2,0.6,0.4,0.8c0.2,0.2,0.4,0.3,0.6,0.4c0.2,0.1,0.5,0.1,0.8,0.1
				c0.3,0,0.6-0.1,0.8-0.2c0.2-0.1,0.4-0.3,0.6-0.5c0.2-0.2,0.3-0.5,0.4-0.8C641.8,130.3,641.9,129.9,641.9,129.5z M640.3,124.9
				l-0.8-0.2l1.7-2.5l1,0.2L640.3,124.9z"/>
			<path class="st3" d="M649.1,132.9v-4.9c0-0.1,0-0.3,0-0.4c0-0.1-0.1-0.2-0.1-0.3c-0.1-0.1-0.2-0.2-0.3-0.2
				c-0.1-0.1-0.3-0.1-0.4-0.1c-0.1,0-0.3,0-0.5,0.1c-0.2,0.1-0.4,0.1-0.5,0.2c-0.2,0.1-0.4,0.2-0.6,0.4c-0.2,0.1-0.4,0.3-0.6,0.5
				v4.7h-1.2v-6.7l1-0.1c0,0,0,0.1,0.1,0.2c0,0.1,0,0.2,0,0.3c0,0.1,0,0.2,0,0.3c0,0.1,0,0.2,0,0.4c0.2-0.2,0.5-0.4,0.7-0.6
				c0.2-0.2,0.4-0.3,0.7-0.4c0.2-0.1,0.4-0.2,0.6-0.2c0.2,0,0.4-0.1,0.6-0.1c0.3,0,0.6,0,0.8,0.1c0.2,0.1,0.4,0.2,0.5,0.3
				c0.1,0.2,0.2,0.3,0.3,0.6c0.1,0.2,0.1,0.5,0.1,0.8v5L649.1,132.9L649.1,132.9z"/>
		</g>
		<path class="st11" d="M693.8,39.3c-0.7,0.2-1.5,0.4-2.3,0.4l3.8,4C695.2,42.1,694.7,40.6,693.8,39.3 M683.8,37.5v1.3l-1.6,1.6
			c1.2,2,1.9,4.3,1.9,6.7c0,0.9-0.1,1.7-0.2,2.5c2.2,0.4,4.3,1.4,5.9,2.9c2.7-1.1,4.8-3.5,5.4-6.3l-4.6-4.9l-3.6,3.6h-1.3v-1.3
			l3.9-3.9C687.4,39.5,685.4,38.7,683.8,37.5 M682.3,36.2c-0.8,0.4-1.6,0.9-2.3,1.6c0.4,0.4,0.7,0.7,1,1.1l1.4-1.4h1.3
			C683.3,37.1,682.8,36.6,682.3,36.2"/>
		<path class="st59" d="M689.5,39.7l-3.9,3.9v1.3h1.3l3.6-3.6l4.6,4.9c0.1-0.6,0.2-1.3,0.2-1.9c0-0.2,0-0.3,0-0.5l-3.8-4
			c-0.3,0-0.6,0-1,0C690.2,39.8,689.9,39.7,689.5,39.7"/>
		<path class="st59" d="M690.5,28l-0.9,0.9v7c0.6,0.3,1.3,0.6,1.8,1v-8L690.5,28"/>
		<path class="st60" d="M689.6,35.9v3.8l-0.1,0.1c0.4,0,0.7,0.1,1.1,0.1c0.3,0,0.6,0,1,0l-0.2-0.2v-2.7
			C690.8,36.4,690.2,36.1,689.6,35.9"/>
		<path class="st3" d="M708.4,101.9l0-67l5.3-5.4l0-1.3l-1.3,0l-4,4.1v-4.5v0l0-6.4l-0.9-0.9l-0.9,0.9l0,4.2l-3.9-3.9h-1.3v1.3
			l5.2,5.1l0,37.6l-9.1-9l5-5v-1.3h-1.3l-4.2,4.1v-8.3l6.3-6.2c0.4-0.4,0.4-0.9,0-1.3l-3.8-3.7h-1.3v1.3l3.1,3.1l-5.2,5.1l-1-1
			c0,0.2,0,0.3,0,0.5c0,0.7-0.1,1.3-0.2,1.9l0.2,0.2v10.5c0,0.2,0.1,0.5,0.3,0.6l0,0l0,0.1l0.1,0l11,10.9l0,33.5l0,1.1
			c0,1.4,0,3.6,0,6.4c-0.1,9.8-2.7,30.5-9.2,44.6l0.4,1.2l1.2-0.5c6.7-14.4,9.3-35,9.4-45.3c0-2.8,0-5.1,0-6.5L708.4,101.9z"/>
		<path class="st35" d="M743.6,67.9h-1.3v1.3l3.1,3.1c0.7-0.1,1.3-0.3,2-0.6L743.6,67.9"/>
	</g>
</g>
</svg>
